<?xml version="1.0" encoding="UTF-8"?>
<svg version="1.1" xmlns="http://www.w3.org/2000/svg" width="500" height="500">
<path d="M0 0 C1.18771751 -0.0049926 1.18771751 -0.0049926 2.39942932 -0.01008606 C4.06925889 -0.01511977 5.7390984 -0.01749549 7.40893555 -0.01733398 C9.90366256 -0.0194985 12.39793035 -0.03763143 14.89257812 -0.05664062 C30.43367916 -0.11403263 45.1716132 1.40672702 60.25390625 5.29296875 C62.0488855 5.75038452 62.0488855 5.75038452 63.88012695 6.21704102 C74.76160153 9.07989911 85.17099823 12.73155716 95.50390625 17.16796875 C96.24640625 17.4834668 96.98890625 17.79896484 97.75390625 18.12402344 C122.38719726 28.73613318 143.42729536 44.48022617 162.50390625 63.16796875 C163.09534424 63.73966797 163.68678223 64.31136719 164.29614258 64.90039062 C168.16751316 68.6902642 171.64419643 72.62225216 174.94140625 76.91796875 C175.41312256 77.52721191 175.88483887 78.13645508 176.37084961 78.76416016 C177.75558974 80.56016034 179.13120461 82.36275797 180.50390625 84.16796875 C181.20773437 85.08835937 181.9115625 86.00875 182.63671875 86.95703125 C184.65149887 89.65699975 186.58999198 92.39558031 188.50390625 95.16796875 C188.87306152 95.69422852 189.2422168 96.22048828 189.62255859 96.76269531 C219.85653377 140.38510441 229.12364859 197.85940759 220.4296875 249.58764648 C214.35832808 282.75400673 200.93243414 311.88033149 181.50390625 339.16796875 C180.84390625 340.15796875 180.18390625 341.14796875 179.50390625 342.16796875 C178.84390625 342.16796875 178.18390625 342.16796875 177.50390625 342.16796875 C177.21193359 343.18117188 177.21193359 343.18117188 176.9140625 344.21484375 C174.95370886 348.32018268 172.0803227 351.16532046 168.94140625 354.41796875 C168.30807373 355.08328613 167.67474121 355.74860352 167.0222168 356.43408203 C165.19019808 358.35267303 163.34802515 360.26101786 161.50390625 362.16796875 C160.24707031 363.48667969 160.24707031 363.48667969 158.96484375 364.83203125 C124.26682158 400.53945043 71.4496624 423.58327641 21.79296875 424.50390625 C18.23804792 424.54462853 14.68402771 424.55045438 11.12890625 424.54296875 C10.20181854 424.54275726 9.27473083 424.54254578 8.31954956 424.54232788 C-6.29399412 424.50909488 -20.23942083 423.58845427 -34.49609375 420.16796875 C-35.32463867 419.98073242 -36.15318359 419.79349609 -37.00683594 419.60058594 C-79.49949065 409.9180802 -121.84116957 386.32993392 -149.49609375 352.16796875 C-150.4075366 351.06899757 -151.31899656 349.97004059 -152.23046875 348.87109375 C-159.24863503 340.33028855 -165.58162927 331.50278173 -171.49609375 322.16796875 C-172.09808594 321.24371094 -172.70007813 320.31945312 -173.3203125 319.3671875 C-187.0640665 297.22981218 -194.7596597 271.58667374 -199.49609375 246.16796875 C-199.63031738 245.46478516 -199.76454102 244.76160156 -199.90283203 244.03710938 C-207.97365621 199.49433289 -197.87344053 150.52268668 -176.49609375 111.16796875 C-175.8825 110.00265625 -175.26890625 108.83734375 -174.63671875 107.63671875 C-169.45575053 98.13114069 -163.2128542 89.63445513 -156.49609375 81.16796875 C-156.0489502 80.60223145 -155.60180664 80.03649414 -155.14111328 79.45361328 C-120.65632045 36.24703619 -71.10987013 8.68412213 -16.49609375 1.16796875 C-14.65688354 0.90886719 -14.65688354 0.90886719 -12.78051758 0.64453125 C-8.510969 0.11617815 -4.29839196 0.00649397 0 0 Z M-36.49609375 22.04296875 C-38.22768281 22.75434888 -39.95945365 23.46528669 -41.69140625 24.17578125 C-42.92745605 24.68866699 -42.92745605 24.68866699 -44.18847656 25.21191406 C-54.72682695 29.57799321 -65.3056646 33.18641331 -76.40234375 35.87109375 C-86.12444193 38.27368123 -95.15788779 42.2374409 -102.49609375 49.16796875 C-101.83609375 49.49796875 -101.17609375 49.82796875 -100.49609375 50.16796875 C-98.37925534 49.27633298 -98.37925534 49.27633298 -96.49609375 48.16796875 C-96.49609375 48.82796875 -96.49609375 49.48796875 -96.49609375 50.16796875 C-95.29146484 50.83699219 -95.29146484 50.83699219 -94.0625 51.51953125 C-89.90467096 55.81025893 -90.61847015 60.77733196 -90.43359375 66.54296875 C-90.30503831 69.09287258 -90.1680369 71.64236191 -90.0234375 74.19140625 C-89.98689056 74.84872742 -89.95034363 75.50604858 -89.91268921 76.18328857 C-89.48962361 83.23352258 -88.50989171 90.18285968 -87.49609375 97.16796875 C-86.11714808 106.77848321 -85.15401783 116.28760958 -84.62109375 125.98046875 C-82.8592085 155.80469074 -77.88935775 190.18209953 -60.49609375 215.16796875 C-80.76337445 196.40585742 -85.98571772 159.73527734 -90.80325317 134.00622559 C-92.62848924 124.28024542 -94.68199854 114.65251054 -97.05859375 105.04296875 C-97.32728271 103.93671143 -97.59597168 102.8304541 -97.87280273 101.69067383 C-101.98679024 85.0724717 -101.98679024 85.0724717 -111.49609375 71.16796875 C-112.15609375 71.16796875 -112.81609375 71.16796875 -113.49609375 71.16796875 C-119.85703298 87.94115969 -114.99259225 102.77424762 -108.91119385 118.86477661 C-107.66417744 122.169459 -106.44328317 125.48381098 -105.21875 128.796875 C-104.97916565 129.44367722 -104.7395813 130.09047943 -104.49273682 130.75688171 C-99.98102694 142.94654593 -96.20394313 154.96589893 -93.31225586 167.64160156 C-91.91207627 173.68841457 -90.15509416 179.43751314 -87.9375 185.2421875 C-86.72775718 188.44078557 -85.6796621 191.67711069 -84.6484375 194.9375 C-80.1880231 208.98677007 -75.86425263 221.30608802 -65.49609375 232.16796875 C-65.16609375 232.16796875 -64.83609375 232.16796875 -64.49609375 232.16796875 C-64.51671875 231.07484375 -64.53734375 229.98171875 -64.55859375 228.85546875 C-63.40484154 220.0308235 -55.30607535 213.53146094 -48.68359375 208.35546875 C-38.03336235 200.82106798 -26.9050344 196.72687812 -14.49609375 193.16796875 C-15.94505907 187.51191992 -17.56200541 181.95552694 -19.44726562 176.4284668 C-32.95460504 136.1079838 -50.27417436 71.6025219 -31.49609375 31.16796875 C-28.69457868 26.35286473 -25.92411875 21.97731042 -20.49609375 20.16796875 C-18.60396638 19.9461709 -16.70724903 19.7618286 -14.80859375 19.60546875 C-13.81472656 19.52167969 -12.82085937 19.43789063 -11.796875 19.3515625 C-11.03761719 19.29097656 -10.27835937 19.23039062 -9.49609375 19.16796875 C-6.48853748 29.59416381 -6.21514892 39.87150314 -7.1875 50.62890625 C-7.27874649 51.69579681 -7.36999298 52.76268738 -7.46400452 53.86190796 C-8.64749825 66.90093436 -10.54048245 79.84183477 -12.43359375 92.79296875 C-15.3998242 113.29652402 -15.3998242 113.29652402 -18.25 133.81640625 C-18.37745102 134.72033112 -18.50490204 135.62425598 -18.63621521 136.55557251 C-19.83249204 145.54063629 -19.78381934 154.01755431 -18.25390625 162.94921875 C-18.12547333 163.72938354 -17.99704041 164.50954834 -17.86471558 165.31335449 C-17.59461607 166.94068819 -17.32050922 168.56736162 -17.04248047 170.19335938 C-16.61764409 172.68822703 -16.21044703 175.18556035 -15.8046875 177.68359375 C-15.53880168 179.27231003 -15.27191148 180.86085862 -15.00390625 182.44921875 C-14.88298615 183.19498169 -14.76206604 183.94074463 -14.63748169 184.70910645 C-13.97550653 188.86903485 -13.97550653 188.86903485 -11.49609375 192.16796875 C-8.8073421 192.38575743 -8.8073421 192.38575743 -5.68359375 192.21484375 C-4.52601563 192.17230469 -3.3684375 192.12976563 -2.17578125 192.0859375 C-0.96148437 192.03050781 0.2528125 191.97507813 1.50390625 191.91796875 C2.71820313 191.87800781 3.9325 191.83804688 5.18359375 191.796875 C11.42911367 191.98922467 11.42911367 191.98922467 16.50390625 189.16796875 C17.57997737 179.92712077 15.82174912 170.44691602 14.56640625 161.29296875 C12.36192075 144.99255003 11.29742268 128.91585181 11.26367188 112.46655273 C11.25400466 109.63429952 11.2228875 106.80278616 11.19140625 103.97070312 C11.05215178 79.96031463 14.54938335 56.73108224 25.50390625 35.16796875 C25.973125 34.183125 26.44234375 33.19828125 26.92578125 32.18359375 C30.22881331 25.30551522 30.22881331 25.30551522 32.50390625 24.16796875 C32.189375 25.0909375 31.87484375 26.01390625 31.55078125 26.96484375 C15.16040045 76.35486789 16.87858233 131.81436457 17.50390625 183.16796875 C18.16390625 183.16796875 18.82390625 183.16796875 19.50390625 183.16796875 C19.42140625 184.09609375 19.33890625 185.02421875 19.25390625 185.98046875 C19.16097075 189.15088499 19.16097075 189.15088499 21.03515625 190.7421875 C24.28436072 192.6187059 27.62795024 193.36801471 31.25390625 194.16796875 C39.2013547 196.03832423 46.16495047 198.49849086 53.50390625 202.16796875 C54.45523438 202.40193359 54.45523438 202.40193359 55.42578125 202.640625 C61.02698502 204.0619831 65.64864207 206.89964055 69.50390625 211.16796875 C71.46073505 212.99134628 71.46073505 212.99134628 73.50390625 214.16796875 C76.50387514 213.49878121 76.50387514 213.49878121 77.6015625 211.6015625 C77.91996094 210.94285156 78.23835937 210.28414062 78.56640625 209.60546875 C78.88738281 208.96480469 79.20835937 208.32414063 79.5390625 207.6640625 C81.85838951 201.66386024 82.80970966 195.68120332 83.21484375 189.29296875 C83.32643997 187.79684639 83.43843234 186.30075353 83.55078125 184.8046875 C83.71607371 182.49982998 83.87712022 180.19485714 84.03027344 177.88916016 C85.02542574 163.1932327 87.72211678 150.05804532 93.25878906 136.33056641 C95.38700307 130.92490282 97.0949745 125.38206538 98.87890625 119.85546875 C103.35572283 106.25548495 107.93179257 93.32687312 116.0234375 81.40234375 C117.53591156 79.22391774 117.53591156 79.22391774 118.59765625 76.9375 C119.83619106 74.51915402 120.99659307 74.18444707 123.50390625 73.16796875 C124.75439629 72.62743435 126.00436717 72.08569784 127.25390625 71.54296875 C128.32640625 71.08921875 129.39890625 70.63546875 130.50390625 70.16796875 C125.90428516 85.73433612 120.66909375 101.04274273 114.87646484 116.20556641 C113.02928991 121.05026798 111.23775342 125.90563934 109.53919983 130.80473328 C104.97574586 143.94666321 99.8335654 156.8635227 94.74462891 169.80883789 C90.09287212 181.65404236 85.57293164 193.48796003 81.67773438 205.60571289 C79.55506391 212.04745264 79.55506391 212.04745264 78.50390625 214.16796875 C77.51390625 214.49796875 76.52390625 214.82796875 75.50390625 215.16796875 C77.48390625 221.60296875 77.48390625 221.60296875 79.50390625 228.16796875 C78.84390625 228.16796875 78.18390625 228.16796875 77.50390625 228.16796875 C77.46265625 227.34296875 77.42140625 226.51796875 77.37890625 225.66796875 C75.34014423 217.51292068 70.05520302 213.51858797 63.12890625 209.35546875 C54.34707918 204.07968472 54.34707918 204.07968472 44.50390625 202.16796875 C44.17390625 201.50796875 43.84390625 200.84796875 43.50390625 200.16796875 C42.84390625 200.49796875 42.18390625 200.82796875 41.50390625 201.16796875 C41.17390625 200.50796875 40.84390625 199.84796875 40.50390625 199.16796875 C37.84255761 198.5293673 35.26430751 198.02792088 32.56640625 197.60546875 C31.35500977 197.41150513 31.35500977 197.41150513 30.11914062 197.21362305 C22.35019946 196.03607698 14.61288587 195.46373314 6.76269531 195.23535156 C5.24868573 195.19018656 3.73495022 195.13473616 2.22167969 195.06933594 C-17.37784824 194.24118687 -35.62206394 198.50814546 -50.49609375 212.16796875 C-57.57157222 219.48785062 -60.7830789 223.51395145 -60.6328125 233.84765625 C-60.47485549 237.68375508 -60.09074417 241.37707234 -59.49609375 245.16796875 C-55.21142613 244.49315393 -51.41165647 243.01644141 -47.43359375 241.35546875 C-46.08019086 240.80930145 -44.72601493 240.26504606 -43.37109375 239.72265625 C-41.11717528 238.81999473 -38.86735813 237.90998212 -36.62109375 236.98828125 C-7.99244321 226.2525373 24.15030556 230.27471033 51.54296875 242.34765625 C59.03954813 245.76170355 66.36763899 249.24184678 73.0078125 254.171875 C74.48180792 255.3527016 74.48180792 255.3527016 76.50390625 255.16796875 C76.83390625 251.53796875 77.16390625 247.90796875 77.50390625 244.16796875 C78.16390625 244.16796875 78.82390625 244.16796875 79.50390625 244.16796875 C81.5156174 244.14676331 81.5156174 244.14676331 83.50390625 243.16796875 C88.78670845 234.51569747 90.81028497 224.47230916 92.80212402 214.66650391 C95.72516197 200.52282284 99.5457463 188.3642523 107.50390625 176.16796875 C108.21619385 175.04165039 108.21619385 175.04165039 108.94287109 173.89257812 C113.98285403 165.93908905 119.37695847 158.27675643 125.00390625 150.73046875 C137.82912748 133.48653254 153.60122208 111.83783204 151.50390625 89.16796875 C149.46518633 84.02973155 146.66767632 79.67661197 143.50390625 75.16796875 C142.84390625 74.18699219 142.18390625 73.20601562 141.50390625 72.1953125 C136.99550619 65.73266645 131.90438749 59.89458918 126.50390625 54.16796875 C125.89160156 53.49121094 125.27929688 52.81445312 124.6484375 52.1171875 C105.98338272 32.25820597 80.87018396 25.06535906 55.00390625 19.98046875 C53.73466309 19.73022949 52.46541992 19.47999023 51.15771484 19.22216797 C36.29483078 16.40502001 21.68891064 14.80878725 6.5546875 14.85229492 C4.24041895 14.85548736 1.92739651 14.83174107 -0.38671875 14.80664062 C-13.29561483 14.74932114 -24.5641507 16.98357314 -36.49609375 22.04296875 Z M-111.49609375 275.16796875 C-112.19992188 275.58046875 -112.90375 275.99296875 -113.62890625 276.41796875 C-120.19833798 280.81424246 -125.71229266 287.49438317 -127.93359375 295.16796875 C-129.71824172 305.02319141 -128.63532787 313.96685279 -122.87109375 322.29296875 C-116.2170881 330.54459457 -108.19877152 335.49675532 -97.74609375 336.98046875 C-88.91731926 337.63344437 -80.83388856 336.17101066 -73.49609375 331.16796875 C-75.14609375 327.53796875 -76.79609375 323.90796875 -78.49609375 320.16796875 C-79.38296875 320.49796875 -80.26984375 320.82796875 -81.18359375 321.16796875 C-87.74488892 323.02544335 -95.95075787 323.44448749 -102.43359375 321.10546875 C-108.05292168 317.55038373 -111.40960278 313.76610367 -113.05859375 307.23046875 C-114.02548547 300.72861524 -112.08250347 296.04290648 -108.24609375 290.85546875 C-103.06372822 285.79088426 -99.05362171 284.99305817 -91.99609375 284.85546875 C-87.12811877 284.96214871 -83.05039417 285.47334534 -78.49609375 287.16796875 C-76.84609375 283.53796875 -75.19609375 279.90796875 -73.49609375 276.16796875 C-84.81093987 269.37906108 -99.82572844 268.32819421 -111.49609375 275.16796875 Z M36.50390625 282.16796875 C30.6586271 289.95332984 27.25608169 298.35694814 28.50390625 308.16796875 C31.2915664 319.2710924 36.5620327 326.23300025 45.84375 332.72265625 C51.69061107 335.89936491 57.36909865 336.52953581 63.87890625 336.48046875 C64.99664429 336.47527222 64.99664429 336.47527222 66.13696289 336.4699707 C71.78681388 336.35841588 76.3406879 335.61370376 81.50390625 333.16796875 C82.16390625 332.17796875 82.82390625 331.18796875 83.50390625 330.16796875 C81.85390625 326.86796875 80.20390625 323.56796875 78.50390625 320.16796875 C77.61703125 320.49796875 76.73015625 320.82796875 75.81640625 321.16796875 C68.90150979 323.10751288 60.63610263 323.56332384 54.00390625 320.54296875 C49.94852033 318.12516996 46.36535557 314.86205549 44.890625 310.25 C43.67202543 303.68925684 44.1203302 298.03283391 47.50390625 292.16796875 C51.44159203 287.90214249 55.78872589 285.40168048 61.58984375 284.90234375 C67.60041465 284.93089753 72.84537129 285.06246737 78.50390625 287.16796875 C80.15390625 283.53796875 81.80390625 279.90796875 83.50390625 276.16796875 C68.07657008 266.91156705 49.1982273 269.40083133 36.50390625 282.16796875 Z M-68.49609375 297.16796875 C-70.88883158 301.03760338 -71.77139539 304.76296215 -71.43359375 309.29296875 C-70.31681112 313.90900363 -68.84325688 317.68126238 -64.6953125 320.30859375 C-60.43051165 321.97512339 -55.98761947 321.6822159 -51.49609375 321.16796875 C-47.27642655 319.28418875 -45.8917316 317.86692896 -43.62109375 313.85546875 C-42.04765711 308.69809309 -41.7891196 305.06563621 -43.68359375 299.98046875 C-46.01655382 296.36035829 -48.6515413 294.09024497 -52.49609375 292.16796875 C-59.04790798 291.23390155 -63.97656087 292.12319286 -68.49609375 297.16796875 Z M-34.49609375 292.16796875 C-34.49609375 301.73796875 -34.49609375 311.30796875 -34.49609375 321.16796875 C-23.19357535 322.11752082 -23.19357535 322.11752082 -15.49609375 317.16796875 C-12.52639221 313.3790392 -11.6614241 309.96254877 -11.49609375 305.16796875 C-12.98183728 300.5543441 -14.62939622 297.15084971 -18.49609375 294.16796875 C-24.15301216 291.47419808 -27.63275211 292.16796875 -34.49609375 292.16796875 Z M-6.49609375 293.16796875 C-5.17609375 302.40796875 -3.85609375 311.64796875 -2.49609375 321.16796875 C4.05492513 321.30433953 4.05492513 321.30433953 10.00390625 320.16796875 C11.15890625 319.83796875 12.31390625 319.50796875 13.50390625 319.16796875 C13.50390625 317.84796875 13.50390625 316.52796875 13.50390625 315.16796875 C11.61671875 315.13703125 11.61671875 315.13703125 9.69140625 315.10546875 C8.98371094 315.09386719 8.27601563 315.08226562 7.546875 315.0703125 C5.30085164 315.08533658 5.30085164 315.08533658 2.50390625 316.16796875 C2.17390625 313.85796875 1.84390625 311.54796875 1.50390625 309.16796875 C4.80390625 308.83796875 8.10390625 308.50796875 11.50390625 308.16796875 C11.50390625 306.51796875 11.50390625 304.86796875 11.50390625 303.16796875 C9.61671875 303.13703125 9.61671875 303.13703125 7.69140625 303.10546875 C6.98371094 303.09386719 6.27601563 303.08226562 5.546875 303.0703125 C3.30085164 303.08533658 3.30085164 303.08533658 0.50390625 304.16796875 C0.50390625 302.18796875 0.50390625 300.20796875 0.50390625 298.16796875 C3.47390625 297.50796875 6.44390625 296.84796875 9.50390625 296.16796875 C9.50390625 294.51796875 9.50390625 292.86796875 9.50390625 291.16796875 C4.12906775 291.16796875 -1.19438571 292.28435074 -6.49609375 293.16796875 Z M155.06640625 294.10546875 C153.30490234 294.36650391 153.30490234 294.36650391 151.5078125 294.6328125 C148.59185186 295.00591012 148.59185186 295.00591012 146.50390625 296.16796875 C147.72759134 305.64073101 149.38096239 314.85532168 151.50390625 324.16796875 C153.15390625 323.83796875 154.80390625 323.50796875 156.50390625 323.16796875 C156.36222488 321.73005359 156.21539582 320.29264505 156.06640625 318.85546875 C155.98519531 318.05496094 155.90398437 317.25445312 155.8203125 316.4296875 C155.55124932 314.00709696 155.55124932 314.00709696 154.50390625 311.16796875 C157.80390625 310.83796875 161.10390625 310.50796875 164.50390625 310.16796875 C164.17390625 308.51796875 163.84390625 306.86796875 163.50390625 305.16796875 C160.20390625 305.82796875 156.90390625 306.48796875 153.50390625 307.16796875 C153.50390625 304.85796875 153.50390625 302.54796875 153.50390625 300.16796875 C156.80390625 299.50796875 160.10390625 298.84796875 163.50390625 298.16796875 C163.17390625 296.51796875 162.84390625 294.86796875 162.50390625 293.16796875 C160.03297917 293.16796875 157.49914262 293.74042507 155.06640625 294.10546875 Z M92.50390625 295.16796875 C92.50390625 304.73796875 92.50390625 314.30796875 92.50390625 324.16796875 C94.15390625 324.16796875 95.80390625 324.16796875 97.50390625 324.16796875 C97.50390625 319.87796875 97.50390625 315.58796875 97.50390625 311.16796875 C101.13390625 311.16796875 104.76390625 311.16796875 108.50390625 311.16796875 C108.50390625 315.45796875 108.50390625 319.74796875 108.50390625 324.16796875 C110.48390625 324.16796875 112.46390625 324.16796875 114.50390625 324.16796875 C114.50390625 314.59796875 114.50390625 305.02796875 114.50390625 295.16796875 C112.52390625 295.16796875 110.54390625 295.16796875 108.50390625 295.16796875 C108.50390625 299.12796875 108.50390625 303.08796875 108.50390625 307.16796875 C104.87390625 307.16796875 101.24390625 307.16796875 97.50390625 307.16796875 C97.50390625 303.20796875 97.50390625 299.24796875 97.50390625 295.16796875 C95.85390625 295.16796875 94.20390625 295.16796875 92.50390625 295.16796875 Z M123.50390625 295.16796875 C123.50390625 304.73796875 123.50390625 314.30796875 123.50390625 324.16796875 C128.78390625 324.16796875 134.06390625 324.16796875 139.50390625 324.16796875 C139.50390625 322.51796875 139.50390625 320.86796875 139.50390625 319.16796875 C135.87390625 319.16796875 132.24390625 319.16796875 128.50390625 319.16796875 C128.83390625 316.85796875 129.16390625 314.54796875 129.50390625 312.16796875 C132.47390625 311.83796875 135.44390625 311.50796875 138.50390625 311.16796875 C138.50390625 309.84796875 138.50390625 308.52796875 138.50390625 307.16796875 C135.20390625 307.16796875 131.90390625 307.16796875 128.50390625 307.16796875 C128.83390625 304.85796875 129.16390625 302.54796875 129.50390625 300.16796875 C132.80390625 300.16796875 136.10390625 300.16796875 139.50390625 300.16796875 C139.50390625 298.51796875 139.50390625 296.86796875 139.50390625 295.16796875 C134.22390625 295.16796875 128.94390625 295.16796875 123.50390625 295.16796875 Z M-19.49609375 360.79296875 C-25.03629912 363.33222955 -30.16664189 363.92810156 -35.93359375 361.79296875 C-37.79895779 360.94210094 -39.66228699 360.08487213 -41.49609375 359.16796875 C-41.85090353 364.15501731 -42.08149529 367.99716566 -39.80859375 372.54296875 C-34.230718 378.8746115 -28.86266908 381.11588443 -20.49609375 382.16796875 C-11.99498394 381.84301881 -3.52799242 379.71491335 2.44140625 373.35546875 C4.79273492 369.72159717 5.50390625 367.48758623 5.50390625 363.16796875 C4.19019462 359.88368968 3.22548746 358.56673731 0.12890625 356.85546875 C-6.92725138 355.00742747 -13.2393644 357.40390702 -19.49609375 360.79296875 Z M13.50390625 359.16796875 C11.88999387 362.39579351 12.06568474 365.6687373 12.50390625 369.16796875 C14.86031969 374.63056354 18.50799151 376.7588043 23.73046875 379.125 C32.06734791 382.26013625 39.97002119 383.09866755 48.50390625 380.16796875 C53.08695581 377.78175286 55.86662745 375.24337672 58.50390625 370.79296875 C59.64987496 366.63883218 59.72943081 363.45293534 59.50390625 359.16796875 C58.45203125 359.61849609 58.45203125 359.61849609 57.37890625 360.078125 C51.40984415 362.47061592 46.75257812 364.23528636 40.50390625 362.16796875 C37.7241835 360.93759966 34.9870744 359.63022303 32.2421875 358.32421875 C25.33208131 355.4063993 20.01947455 355.50296158 13.50390625 359.16796875 Z " fill="#F7F7F7" transform="translate(250.49609375,16.83203125)"/>
<path d="M0 0 C0.99386719 0.00902344 1.98773438 0.01804688 3.01171875 0.02734375 C4.15060547 0.04474609 4.15060547 0.04474609 5.3125 0.0625 C9.80861119 10.22762096 9.6073224 20.61250282 8.62109375 31.5234375 C8.52984726 32.59032806 8.43860077 33.65721863 8.34458923 34.75643921 C7.1610955 47.79546561 5.2681113 60.73636602 3.375 73.6875 C0.40876955 94.19105527 0.40876955 94.19105527 -2.44140625 114.7109375 C-2.56885727 115.61486237 -2.69630829 116.51878723 -2.82762146 117.45010376 C-4.0268132 126.457061 -3.97467466 134.93056936 -2.41015625 143.87890625 C-2.27935165 144.66144272 -2.14854706 145.44397919 -2.01377869 146.25022888 C-1.73936688 147.88174774 -1.46106544 149.51261696 -1.17895508 151.14282227 C-0.74584652 153.64903438 -0.32613048 156.15723165 0.09179688 158.66601562 C0.361208 160.2579432 0.63136256 161.84974518 0.90234375 163.44140625 C1.02842514 164.19233047 1.15450653 164.9432547 1.28440857 165.7169342 C1.64113016 169.18390628 1.64113016 169.18390628 3.3125 172.0625 C5.22916125 172.09150608 7.14698937 172.04902425 9.0625 171.9765625 C10.2278125 171.93273437 11.393125 171.88890625 12.59375 171.84375 C13.8209375 171.7921875 15.048125 171.740625 16.3125 171.6875 C17.5396875 171.64367187 18.766875 171.59984375 20.03125 171.5546875 C25.55040865 171.86427125 25.55040865 171.86427125 30.3125 170.0625 C31.02918286 160.70445845 29.64322626 151.4353928 28.375 142.1875 C26.1705145 125.88708128 25.10601643 109.81038306 25.07226562 93.36108398 C25.06259841 90.52883077 25.03148125 87.69731741 25 84.86523438 C24.8305594 55.65012418 30.92238055 30.52586739 45.3125 5.0625 C45.9725 5.0625 46.6325 5.0625 47.3125 5.0625 C46.76288598 8.08839696 46.06572296 11.04560452 45.26171875 14.01171875 C38.29324345 39.92521489 36.06444086 66.37956586 34.3125 93.0625 C34.26337463 93.79346893 34.21424927 94.52443787 34.16363525 95.27755737 C33.29919572 108.46216307 33.09519944 121.63511438 33.07226562 134.84594727 C33.06240361 138.28359822 33.03118149 141.72068748 33 145.15820312 C32.99348137 147.36978819 32.98822645 149.58137743 32.984375 151.79296875 C32.9658548 153.31497139 32.9658548 153.31497139 32.94696045 154.86772156 C32.96602718 160.96130255 33.67709161 165.53508606 36.3125 171.0625 C39.13677514 172.88997215 41.75509545 173.15101909 45.0625 173.8125 C49.8315825 174.8160948 54.35165797 176.37646559 58.9375 178 C59.65389648 178.25297852 60.37029297 178.50595703 61.10839844 178.76660156 C71.18370942 182.38516646 80.86469571 186.16331363 88.3125 194.0625 C88.9725 194.0625 89.6325 194.0625 90.3125 194.0625 C91.240625 192.33 91.240625 192.33 92.1875 190.5625 C92.53554688 189.9128125 92.88359375 189.263125 93.2421875 188.59375 C95.754069 182.65324194 96.61812594 176.57853283 97.0234375 170.1875 C97.13503372 168.69137764 97.24702609 167.19528478 97.359375 165.69921875 C97.52466746 163.39436123 97.68571397 161.08938839 97.83886719 158.78369141 C98.83401949 144.08776395 101.53071053 130.95257657 107.06738281 117.22509766 C109.19559682 111.81943407 110.90356825 106.27659663 112.6875 100.75 C124.29001336 65.5030805 124.29001336 65.5030805 136.3125 55.0625 C137.1375 54.32 137.9625 53.5775 138.8125 52.8125 C141.40998916 50.99425759 143.1926119 50.41905864 146.3125 50.0625 C145.08061522 56.20924274 143.43323915 62.04178377 141.3125 67.9375 C140.8649939 69.19977417 140.8649939 69.19977417 140.40844727 70.48754883 C137.36729734 79.01520654 134.21305759 87.50223014 131.04101562 95.98193359 C129.07820255 101.23924064 127.15170235 106.503537 125.31373596 111.80596924 C120.76074675 124.91163941 115.62836505 137.79314361 110.55322266 150.70336914 C103.97887355 167.44096119 103.97887355 167.44096119 98.22570801 184.47349548 C96.67331442 189.37640298 94.97418423 193.40081577 91.3125 197.0625 C91.8075 198.114375 92.3025 199.16625 92.8125 200.25 C94.14029788 203.31702609 94.61965006 205.68384936 94.3125 209.0625 C93.6525 209.0625 92.9925 209.0625 92.3125 209.0625 C91.66145833 207.14192708 91.01041667 205.22135417 90.359375 203.30078125 C87.70797094 197.63192108 83.60330758 194.62319797 78.3125 191.5625 C77.64750488 191.17304199 76.98250977 190.78358398 76.29736328 190.38232422 C58.0661444 179.91148532 39.9448489 178.15554052 19.3125 177.0625 C18.4270752 177.01432129 17.54165039 176.96614258 16.62939453 176.91650391 C-1.93743135 176.03520254 -18.95957355 180.19577241 -33.65234375 192.1953125 C-36.38911749 194.70621048 -38.81261949 197.40684721 -41.1796875 200.265625 C-42.6042841 201.96333079 -44.09766426 203.52026413 -45.6875 205.0625 C-46.3475 204.7325 -47.0075 204.4025 -47.6875 204.0625 C-41.84901308 191.43572447 -28.20868808 183.00084489 -15.6875 178.0625 C-10.42322583 176.44669616 -5.06753872 175.22316825 0.3125 174.0625 C0.05146484 173.34223633 -0.20957031 172.62197266 -0.47851562 171.87988281 C-16.32452059 127.63039959 -38.57981419 57.13785919 -17.6875 12.0625 C-13.23037309 4.29847248 -9.13683958 -0.10749223 0 0 Z " fill="#C6C6C6" transform="translate(235.6875,35.9375)"/>
<path d="M0 0 C0.99386719 0.00902344 1.98773438 0.01804688 3.01171875 0.02734375 C4.15060547 0.04474609 4.15060547 0.04474609 5.3125 0.0625 C9.80861119 10.22762096 9.6073224 20.61250282 8.62109375 31.5234375 C8.52984726 32.59032806 8.43860077 33.65721863 8.34458923 34.75643921 C7.1610955 47.79546561 5.2681113 60.73636602 3.375 73.6875 C0.40876955 94.19105527 0.40876955 94.19105527 -2.44140625 114.7109375 C-2.56885727 115.61486237 -2.69630829 116.51878723 -2.82762146 117.45010376 C-3.93629629 125.77720146 -4.09756229 133.75879985 -2.6875 142.0625 C-1.79708438 147.79376671 -1.44733188 153.27177987 -1.6875 159.0625 C-4.35320481 158.07744549 -5.46283593 157.5353351 -6.70483398 154.92138672 C-6.94532471 154.03725098 -7.18581543 153.15311523 -7.43359375 152.2421875 C-7.71098389 151.24445313 -7.98837402 150.24671875 -8.27416992 149.21875 C-8.55494385 148.1359375 -8.83571777 147.053125 -9.125 145.9375 C-9.42575439 144.81601563 -9.72650879 143.69453125 -10.03637695 142.5390625 C-35.98103069 43.92865023 -35.98103069 43.92865023 -15.75 8.6875 C-10.89368114 2.50673055 -7.9290828 -0.09328333 0 0 Z " fill="#E7E7E7" transform="translate(235.6875,35.9375)"/>
<path d="M0 0 C0 0.66 0 1.32 0 2 C0.61875 2.28875 1.2375 2.5775 1.875 2.875 C4 4 4 4 6 6 C6.34716797 8.32128906 6.34716797 8.32128906 6.4921875 11.265625 C6.55535156 12.36777344 6.61851562 13.46992187 6.68359375 14.60546875 C6.74675781 15.80816406 6.80992187 17.01085937 6.875 18.25 C7.50432993 28.58594416 8.52791694 38.74444324 10 49 C11.37730862 58.61081493 12.34206785 68.11949418 12.875 77.8125 C14.52952284 105.81935042 18.54025064 142.06374541 36 165 C36 165.66 36 166.32 36 167 C29.4807674 164.60195629 26.84086099 156.89787445 24 151 C14.39168721 129.89333797 8.94790409 108.54405025 4.69229126 85.8371582 C2.86730319 76.1114995 0.81401098 66.48420122 -1.5625 56.875 C-1.96553345 55.21561401 -1.96553345 55.21561401 -2.37670898 53.52270508 C-6.28608471 38.04496006 -6.28608471 38.04496006 -15 25 C-15 24.34 -15 23.68 -15 23 C-15.66 23 -16.32 23 -17 23 C-17.66 25.97 -18.32 28.94 -19 32 C-19.33 32 -19.66 32 -20 32 C-19.79812335 22.67696945 -18.32495228 13.35215324 -11.515625 6.5 C-3.48348214 0 -3.48348214 0 0 0 Z " fill="#D6D6D6" transform="translate(154,65)"/>
<path d="M0 0 C1.41755843 4.25267529 -0.25525148 7.21658342 -1.75 11.25 C-2.41436291 13.08973529 -3.07840498 14.92958647 -3.7421875 16.76953125 C-4.10795898 17.7745166 -4.47373047 18.77950195 -4.85058594 19.81494141 C-6.02939364 23.08145059 -7.17839684 26.35714077 -8.3203125 29.63671875 C-19.40221172 61.37687708 -31.2450035 92.89318179 -44 124 C-44.66 124 -45.32 124 -46 124 C-46.27999507 111.85132518 -45.57762021 100.04832273 -44 88 C-43.86722656 86.948125 -43.73445313 85.89625 -43.59765625 84.8125 C-42.85308265 79.93377011 -41.53227287 75.59417431 -39.69921875 71.01171875 C-37.08038594 64.31248871 -34.83383999 57.53045663 -32.625 50.6875 C-21.02248664 15.4405805 -21.02248664 15.4405805 -9 5 C-7.7315625 3.88625 -7.7315625 3.88625 -6.4375 2.75 C-4.16971819 1.12184895 -2.724966 0.40369867 0 0 Z " fill="#DEDEDE" transform="translate(381,86)"/>
<path d="M0 0 C7.49834077 4.8561848 7.49834077 4.8561848 9.58203125 8.80078125 C9.75333736 11.82418381 9.76057777 14.66198476 9.64453125 17.67578125 C9.46809588 26.36674442 9.88740763 34.88865584 10.58203125 43.55078125 C11.54512691 56.01250762 11.67194653 68.3695808 11.58203125 80.86328125 C11.31175614 115.22523801 11.31175614 115.22523801 21.53125 147.69921875 C22.58203125 149.80078125 22.58203125 149.80078125 23.58203125 152.80078125 C18.442646 150.89976133 17.30109315 146.95133667 15.08984375 142.234375 C4.78312761 118.76389964 2.72828039 93.63657016 0.2467804 68.40515137 C-1.75416392 48.18727928 -3.92697157 29.28100429 -13.7109375 11.2265625 C-15.18225397 8.273829 -16.13943358 6.06616164 -16.41796875 2.80078125 C-12.68358103 -2.42736156 -5.38446516 -2.67048595 0 0 Z " fill="#E4E4E4" transform="translate(181.41796875,57.19921875)"/>
<path d="M0 0 C0.66 0 1.32 0 2 0 C-0.22319638 17.66977954 -6.67315557 33.12213813 -14.125 49.1875 C-17.19666057 55.82730416 -20.10985342 62.45667578 -22.5 69.375 C-22.84635498 70.33442505 -22.84635498 70.33442505 -23.19970703 71.31323242 C-27.74056415 85.13375623 -27.67237262 100.96470837 -28.80493164 115.36083984 C-29.06045602 118.59909661 -29.32378497 121.83665189 -29.58789062 125.07421875 C-30.68267469 138.70830276 -31.47484253 152.33228748 -32 166 C-32.99 166 -33.98 166 -35 166 C-35.98246463 111.8132969 -34.1740872 45.27522381 0 0 Z " fill="#BEBEBE" transform="translate(335,46)"/>
<path d="M0 0 C1.27265436 4.29662417 0.63426239 8.12712575 0.0625 12.5 C-0.79228342 19.51900854 -1.0521383 26.31042712 -0.875 33.375 C-0.68002831 43.57753375 -2.3038247 52.28380525 -8 61 C-8.99 61.99 -8.99 61.99 -10 63 C-9.505 64.051875 -9.01 65.10375 -8.5 66.1875 C-7.17220212 69.25452609 -6.69284994 71.62134936 -7 75 C-7.66 75 -8.32 75 -9 75 C-9.65104167 73.07942708 -10.30208333 71.15885417 -10.953125 69.23828125 C-13.60452906 63.56942108 -17.70919242 60.56069797 -23 57.5 C-23.66499512 57.11054199 -24.32999023 56.72108398 -25.01513672 56.31982422 C-43.2463556 45.84898532 -61.3676511 44.09304052 -82 43 C-83.32813721 42.92773193 -83.32813721 42.92773193 -84.68310547 42.85400391 C-103.24993135 41.97270254 -120.27207355 46.13327241 -134.96484375 58.1328125 C-137.70161749 60.64371048 -140.12511949 63.34434721 -142.4921875 66.203125 C-143.9167841 67.90083079 -145.41016426 69.45776413 -147 71 C-147.66 70.67 -148.32 70.34 -149 70 C-143.16151308 57.37322447 -129.52118808 48.93834489 -117 44 C-111.73572583 42.38419616 -106.38003872 41.16066825 -101 40 C-101.37253906 39.01257813 -101.74507812 38.02515625 -102.12890625 37.0078125 C-102.60716933 35.71368887 -103.0850122 34.41940989 -103.5625 33.125 C-103.9327832 32.14853516 -103.9327832 32.14853516 -104.31054688 31.15234375 C-104.93173115 29.45502335 -105.47152252 27.72843224 -106 26 C-105.67 25.34 -105.34 24.68 -105 24 C-104.34 24.33 -103.68 24.66 -103 25 C-103 23.35 -103 21.7 -103 20 C-102.67 20 -102.34 20 -102 20 C-101.79503906 21.21558594 -101.59007812 22.43117187 -101.37890625 23.68359375 C-101.10698039 25.26826514 -100.83483357 26.85289863 -100.5625 28.4375 C-100.42779297 29.23994141 -100.29308594 30.04238281 -100.15429688 30.86914062 C-99.79732776 34.75471303 -99.79732776 34.75471303 -98 38 C-96.08333875 38.02900608 -94.16551063 37.98652425 -92.25 37.9140625 C-90.50203125 37.84832031 -90.50203125 37.84832031 -88.71875 37.78125 C-87.4915625 37.7296875 -86.264375 37.678125 -85 37.625 C-83.7728125 37.58117187 -82.545625 37.53734375 -81.28125 37.4921875 C-75.76209135 37.80177125 -75.76209135 37.80177125 -71 36 C-70.91368126 34.65732587 -70.89293527 33.31025678 -70.90234375 31.96484375 C-70.90556641 31.15595703 -70.90878906 30.34707031 -70.91210938 29.51367188 C-70.92048828 28.66353516 -70.92886719 27.81339844 -70.9375 26.9375 C-70.94201172 26.08349609 -70.94652344 25.22949219 -70.95117188 24.34960938 C-70.96299627 22.23304337 -70.98093231 20.11651315 -71 18 C-70.01 18.66 -69.02 19.32 -68 20 C-67.8125 21.8828125 -67.8125 21.8828125 -68 24.125 C-68.15506521 29.17686124 -67.30153723 32.47628889 -65 37 C-62.17572486 38.82747215 -59.55740455 39.08851909 -56.25 39.75 C-51.4809175 40.7535948 -46.96084203 42.31396559 -42.375 43.9375 C-41.65860352 44.19047852 -40.94220703 44.44345703 -40.20410156 44.70410156 C-30.12879058 48.32266646 -20.44780429 52.10081363 -13 60 C-12.34 60 -11.68 60 -11 60 C-10.071875 58.2675 -10.071875 58.2675 -9.125 56.5 C-8.77695312 55.8503125 -8.42890625 55.200625 -8.0703125 54.53125 C-5.52203802 48.50467385 -4.67400397 42.34266156 -4.21875 35.87890625 C-4.15973511 35.13470932 -4.10072021 34.39051239 -4.03991699 33.62376404 C-3.85353084 31.2704539 -3.67570663 28.91662997 -3.5 26.5625 C-2.10378925 7.89827773 -2.10378925 7.89827773 0 0 Z " fill="#0A0A0A" transform="translate(337,170)"/>
<path d="M0 0 C0.84062397 3.09773244 1.08935201 5.78332751 1 9 C1.66 8.01 2.32 7.02 3 6 C2.50518291 9.29878058 1.87941254 12.44708929 1.00976562 15.67138672 C-0.08891851 20.02506612 -0.49467044 24.28620456 -0.78125 28.7578125 C-0.86882065 29.98359009 -0.86882065 29.98359009 -0.9581604 31.23413086 C-1.14501701 33.86402462 -1.32248483 36.49446086 -1.5 39.125 C-1.7546456 42.7502273 -2.01402131 46.37511136 -2.2734375 50 C-2.33586639 50.88140656 -2.39829529 51.76281311 -2.46261597 52.67092896 C-2.92665783 59.16513999 -3.48688529 65.64549224 -4.125 72.125 C-5.15558005 82.7306056 -5.61721454 93.35358491 -6 104 C-6.99 104 -7.98 104 -9 104 C-9.62948204 69.28164468 -8.82974345 33.78848493 0 0 Z " fill="#777777" transform="translate(309,108)"/>
<path d="M0 0 C1.27265436 4.29662417 0.63426239 8.12712575 0.0625 12.5 C-0.79228342 19.51900854 -1.0521383 26.31042712 -0.875 33.375 C-0.68002831 43.57753375 -2.3038247 52.28380525 -8 61 C-8.66 61.66 -9.32 62.32 -10 63 C-9.2575 64.5778125 -9.2575 64.5778125 -8.5 66.1875 C-7.17220212 69.25452609 -6.69284994 71.62134936 -7 75 C-7.66 75 -8.32 75 -9 75 C-9.65104167 73.07942708 -10.30208333 71.15885417 -10.953125 69.23828125 C-13.60497427 63.56846919 -17.70967855 60.56267625 -23 57.5 C-23.98552856 56.91907593 -23.98552856 56.91907593 -24.9909668 56.32641602 C-34.48295452 50.49081556 -34.48295452 50.49081556 -45 48 C-45 47.01 -45 46.02 -45 45 C-43.60335892 45.11562606 -42.20768801 45.242992 -40.8125 45.375 C-40.03519531 45.44460937 -39.25789063 45.51421875 -38.45703125 45.5859375 C-28.78233436 47.21633157 -20.13226892 53.62648309 -13 60 C-12.34 60 -11.68 60 -11 60 C-10.38125 58.845 -9.7625 57.69 -9.125 56.5 C-8.60292969 55.52546875 -8.60292969 55.52546875 -8.0703125 54.53125 C-5.52203802 48.50467385 -4.67400397 42.34266156 -4.21875 35.87890625 C-4.13022766 34.76261086 -4.13022766 34.76261086 -4.03991699 33.62376404 C-3.85353084 31.2704539 -3.67570663 28.91662997 -3.5 26.5625 C-2.10378925 7.89827773 -2.10378925 7.89827773 0 0 Z " fill="#0C0C0C" transform="translate(337,170)"/>
<path d="M0 0 C2.43225888 1.82419416 2.87057227 3.12349577 3.30859375 6.08984375 C3.52903315 10.10451289 3.31165398 12.44594848 1.3125 16 C-1.33105441 18.28631733 -2.50897671 19 -6 19 C-9.44163712 17.78530455 -11.41518006 16.88994338 -13.4375 13.8125 C-14.20292895 9.98535523 -14.18401163 6.73898409 -13 3 C-9.25714545 -1.65021322 -5.37856357 -1.7695707 0 0 Z " fill="#DBDBDB" transform="translate(199,315)"/>
<path d="M0 0 C0.66 0.33 1.32 0.66 2 1 C1.97679687 2.16789062 1.95359375 3.33578125 1.9296875 4.5390625 C1.79328255 15.00387969 2.18029204 25.31665021 3 35.75 C3.96093142 48.21202851 4.08991702 60.5685578 4 73.0625 C3.72972489 107.42445676 3.72972489 107.42445676 13.94921875 139.8984375 C15 142 15 142 16 145 C10.87431937 143.10404932 9.73750195 139.17670867 7.515625 134.48046875 C2.75932122 123.55813198 -2.42233209 111.11426272 -2 99 C0.02350324 102.03525486 0.32124018 103.19426202 0.625 106.6875 C0.69976562 107.49574219 0.77453125 108.30398437 0.8515625 109.13671875 C0.90054688 109.75160156 0.94953125 110.36648437 1 111 C1.66 111 2.32 111 3 111 C2.93361328 110.19594727 2.86722656 109.39189453 2.79882812 108.56347656 C1.68683548 93.29995714 1.66888887 78.00164569 1.47393799 62.70507812 C1.41427957 58.0481058 1.34839276 53.39124671 1.28125 48.734375 C1.26767456 47.53407654 1.25409912 46.33377808 1.2401123 45.09710693 C1.14489158 38.55429606 0.81348781 32.09360288 0.21939087 25.57733154 C-0.0303172 22.64384349 -0.11477072 19.74056458 -0.09765625 16.796875 C-0.09443359 15.79785156 -0.09121094 14.79882812 -0.08789062 13.76953125 C-0.07951172 12.77308594 -0.07113281 11.77664062 -0.0625 10.75 C-0.05798828 9.70714844 -0.05347656 8.66429688 -0.04882812 7.58984375 C-0.03722256 5.05983146 -0.0209007 2.52994958 0 0 Z " fill="#636363" transform="translate(189,65)"/>
<path d="M0 0 C0.33 0 0.66 0 1 0 C1.20496094 1.21558594 1.40992188 2.43117187 1.62109375 3.68359375 C1.89301961 5.26826514 2.16516643 6.85289863 2.4375 8.4375 C2.57220703 9.23994141 2.70691406 10.04238281 2.84570312 10.86914062 C3.20267224 14.75471303 3.20267224 14.75471303 5 18 C5.928125 18 6.85625 18 7.8125 18 C11.64182733 18 14.39400504 18.79800168 18 20 C14.65863324 21.67068338 10.9286269 21.40070462 7.23828125 21.62109375 C3.64860385 22.04111632 0.45194505 22.93552355 -3 24 C-4.14597656 24.32097656 -5.29195312 24.64195312 -6.47265625 24.97265625 C-20.95515607 29.36941082 -31.36420627 36.21582842 -41 48 C-41.98550142 49.01429135 -42.97967802 50.02074362 -44 51 C-44.66 50.67 -45.32 50.34 -46 50 C-40.16151308 37.37322447 -26.52118808 28.93834489 -14 24 C-8.73572583 22.38419616 -3.38003872 21.16066825 2 20 C1.62746094 19.01257813 1.25492188 18.02515625 0.87109375 17.0078125 C0.39283067 15.71368887 -0.0850122 14.41940989 -0.5625 13.125 C-0.9327832 12.14853516 -0.9327832 12.14853516 -1.31054688 11.15234375 C-1.93173115 9.45502335 -2.47152252 7.72843224 -3 6 C-2.67 5.34 -2.34 4.68 -2 4 C-1.34 4.33 -0.68 4.66 0 5 C0 3.35 0 1.7 0 0 Z " fill="#959595" transform="translate(234,190)"/>
<path d="M0 0 C7.23076923 1.20512821 7.23076923 1.20512821 10 5 C11.23946871 8.80103737 11.19408217 10.49538636 9.75 14.25 C8 17 8 17 5 19 C3.35 19 1.7 19 0 19 C0 12.73 0 6.46 0 0 Z " fill="#D6D6D6" transform="translate(222,314)"/>
<path d="M0 0 C0.33 0 0.66 0 1 0 C1 7.92 1 15.84 1 24 C1.66 19.38 2.32 14.76 3 10 C3.33 10 3.66 10 4 10 C3.94013916 10.93457031 3.88027832 11.86914062 3.81860352 12.83203125 C3.1394013 23.55198569 2.52695311 34.27477578 1.9375 45 C1.8457559 46.66146125 1.75395928 48.3229196 1.66210938 49.984375 C1.44080375 53.98955033 1.22019825 57.99476364 1 62 C0.01 62 -0.98 62 -2 62 C-2.23694409 41.21271301 -1.97747275 20.71350115 0 0 Z " fill="#6A6A6A" transform="translate(302,150)"/>
<path d="M0 0 C1.20366211 0.00966797 1.20366211 0.00966797 2.43164062 0.01953125 C3.26501953 0.03628906 4.09839844 0.05304688 4.95703125 0.0703125 C6.22450195 0.08384766 6.22450195 0.08384766 7.51757812 0.09765625 C9.60168368 0.12120547 11.68564342 0.15707603 13.76953125 0.1953125 C14.09953125 1.1853125 14.42953125 2.1753125 14.76953125 3.1953125 C15.67574219 3.24429688 16.58195312 3.29328125 17.515625 3.34375 C23.75746072 3.7268468 29.66480412 4.24981407 35.7265625 5.78515625 C39.09826492 6.46207547 42.34204144 6.31994849 45.76953125 6.1953125 C44.27734375 7.7734375 44.27734375 7.7734375 41.76953125 9.1953125 C38.92849492 8.94304289 36.41110446 8.54643353 33.64453125 7.9453125 C18.76805715 5.097526 3.87338405 5.02324329 -11.23046875 5.1953125 C-11.23046875 4.5353125 -11.23046875 3.8753125 -11.23046875 3.1953125 C-5.78546875 2.7003125 -5.78546875 2.7003125 -0.23046875 2.1953125 C-2.54046875 2.1953125 -4.85046875 2.1953125 -7.23046875 2.1953125 C-4.12961304 0.12807536 -3.50115194 -0.04966173 0 0 Z " fill="#020202" transform="translate(249.23046875,207.8046875)"/>
<path d="M0 0 C1.95346676 3.43980017 2.73655376 6.84725342 3.625 10.6875 C5.153483 16.8390491 7.34663081 22.4641122 10.0625 28.1875 C10.40297363 28.90574951 10.74344727 29.62399902 11.09423828 30.36401367 C12.80490145 33.86567042 14.62380216 36.89835858 17 40 C17 40.66 17 41.32 17 42 C10.54885179 39.72564841 7.85779159 31.79515047 5 26 C-2 10.81322776 -2 10.81322776 -2 6 C-1.34 6 -0.68 6 0 6 C0 4.02 0 2.04 0 0 Z " fill="#8B8B8B" transform="translate(173,190)"/>
<path d="M0 0 C0.33 0 0.66 0 1 0 C1.20496094 1.21558594 1.40992188 2.43117187 1.62109375 3.68359375 C1.89301961 5.26826514 2.16516643 6.85289863 2.4375 8.4375 C2.57220703 9.23994141 2.70691406 10.04238281 2.84570312 10.86914062 C3.20267224 14.75471303 3.20267224 14.75471303 5 18 C5.928125 18 6.85625 18 7.8125 18 C11.64182733 18 14.39400504 18.79800168 18 20 C15.39523731 21.30238134 13.21879165 21.25881958 10.3125 21.4375 C5.5521755 21.79580399 1.52626528 22.55159511 -3 24 C-6.3125 24.75 -6.3125 24.75 -9 25 C-9.66 24.34 -10.32 23.68 -11 23 C-6.71 22.01 -2.42 21.02 2 20 C1.62746094 19.01257813 1.25492188 18.02515625 0.87109375 17.0078125 C0.39283067 15.71368887 -0.0850122 14.41940989 -0.5625 13.125 C-0.80935547 12.47402344 -1.05621094 11.82304687 -1.31054688 11.15234375 C-1.93173115 9.45502335 -2.47152252 7.72843224 -3 6 C-2.67 5.34 -2.34 4.68 -2 4 C-1.34 4.33 -0.68 4.66 0 5 C0 3.35 0 1.7 0 0 Z " fill="#242424" transform="translate(234,190)"/>
<path d="M0 0 C1.27265436 4.29662417 0.63426239 8.12712575 0.0625 12.5 C-0.79226966 19.51889554 -1.05288088 26.31049143 -0.875 33.375 C-0.71284419 41.46320657 -1.44635521 48.56847275 -5 56 C-5.99 56.495 -5.99 56.495 -7 57 C-6.45199524 51.79395477 -5.80363971 46.61964219 -5.0625 41.4375 C-3.97737551 33.50403429 -3.34535932 25.55079046 -2.78540039 17.56420898 C-2.33132667 11.52895746 -1.45989229 5.87606647 0 0 Z " fill="#3F3F3F" transform="translate(337,170)"/>
<path d="M0 0 C0.33 0 0.66 0 1 0 C1.38364124 22.83550687 1.38364124 22.83550687 -0.48828125 33.6953125 C-1.42692102 39.75706247 -1.67422081 45.87878041 -2 52 C-2.33 52 -2.66 52 -3 52 C-3.2712238 15.27629755 -3.2712238 15.27629755 0 0 Z " fill="#E3E3E3" transform="translate(305,137)"/>
<path d="M0 0 C0.33 0 0.66 0 1 0 C1.23074219 1.29292969 1.46148437 2.58585938 1.69921875 3.91796875 C3.86722396 15.63106248 6.51498376 26.33189501 12 37 C6.79282746 35.12181898 5.62960209 30.90602118 3.3984375 26.171875 C0.33497233 19.2234568 -1.55852483 14.65094008 0 7 C0.03703237 4.66696056 0.04760913 2.33284758 0 0 Z " fill="#727272" transform="translate(193,173)"/>
<path d="M0 0 C-2.7139207 1.47181518 -5.09426268 2.32992661 -8.125 2.8828125 C-13.33761437 3.97694964 -18.08965448 5.84287239 -23 7.875 C-24.25683594 8.38353516 -24.25683594 8.38353516 -25.5390625 8.90234375 C-28.88951082 10.26638076 -32.22125268 11.62926982 -35.48828125 13.18457031 C-36.27589844 13.55936523 -37.06351563 13.93416016 -37.875 14.3203125 C-38.57367188 14.66594238 -39.27234375 15.01157227 -39.9921875 15.36767578 C-42.38343873 16.12075709 -43.66356944 15.81133337 -46 15 C-10.22410894 -0.8813887 -10.22410894 -0.8813887 0 0 Z " fill="#424242" transform="translate(237,32)"/>
<path d="M0 0 C0.66 0 1.32 0 2 0 C1.1595613 4.48528865 0.05582308 8.89057943 -1.0625 13.3125 C-1.24876953 14.05306641 -1.43503906 14.79363281 -1.62695312 15.55664062 C-2.08356105 17.37136441 -2.54163306 19.18571971 -3 21 C-3.33 21 -3.66 21 -4 21 C-4.33 19.02 -4.66 17.04 -5 15 C-5.66 16.32 -6.32 17.64 -7 19 C-7.66 19 -8.32 19 -9 19 C-7.56283647 11.97386719 -4.07996731 5.86014173 0 0 Z " fill="#6F6F6F" transform="translate(281,41)"/>
<path d="M0 0 C0.66 0.99 1.32 1.98 2 3 C0.68 4.65 -0.64 6.3 -2 8 C-1.2575 9.5778125 -1.2575 9.5778125 -0.5 11.1875 C0.82779788 14.25452609 1.30715006 16.62134936 1 20 C0.34 20 -0.32 20 -1 20 C-1.433125 18.7625 -1.86625 17.525 -2.3125 16.25 C-3.49640469 13.05909498 -4.85147787 10.66007502 -7 8 C-7 7.34 -7 6.68 -7 6 C-6.401875 5.938125 -5.80375 5.87625 -5.1875 5.8125 C-2.12856542 4.6763243 -1.44958901 2.82669858 0 0 Z " fill="#151515" transform="translate(329,225)"/>
<path d="M0 0 C1.23556641 0.01740234 1.23556641 0.01740234 2.49609375 0.03515625 C3.32238281 0.04417969 4.14867187 0.05320312 5 0.0625 C5.63808594 0.07410156 6.27617187 0.08570313 6.93359375 0.09765625 C7.26359375 0.75765625 7.59359375 1.41765625 7.93359375 2.09765625 C4.96359375 2.09765625 1.99359375 2.09765625 -1.06640625 2.09765625 C-1.06640625 3.74765625 -1.06640625 5.39765625 -1.06640625 7.09765625 C1.90359375 7.09765625 4.87359375 7.09765625 7.93359375 7.09765625 C7.93359375 9.07765625 7.93359375 11.05765625 7.93359375 13.09765625 C4.63359375 13.09765625 1.33359375 13.09765625 -2.06640625 13.09765625 C-2.06640625 12.76765625 -2.06640625 12.43765625 -2.06640625 12.09765625 C0.90359375 12.09765625 3.87359375 12.09765625 6.93359375 12.09765625 C6.93359375 10.77765625 6.93359375 9.45765625 6.93359375 8.09765625 C3.63359375 8.09765625 0.33359375 8.09765625 -3.06640625 8.09765625 C-3.10882348 5.7647085 -3.10733562 3.43063058 -3.06640625 1.09765625 C-2.06640625 0.09765625 -2.06640625 0.09765625 0 0 Z " fill="#424242" transform="translate(382.06640625,315.90234375)"/>
<path d="M0 0 C-1.35572122 2.71144245 -2.61342293 2.74549209 -5.4375 3.75 C-11.03825289 5.88362015 -15.96017504 8.78309045 -21 12 C-21.66 11.34 -22.32 10.68 -23 10 C-20.94047642 8.70337462 -18.87762943 7.41264273 -16.8125 6.125 C-16.23435547 5.76019531 -15.65621094 5.39539063 -15.06054688 5.01953125 C-9.99897622 1.87392237 -6.03232013 -0.34470401 0 0 Z " fill="#7B7B7B" transform="translate(225,214)"/>
<path d="M0 0 C2.02350324 3.03525486 2.32124018 4.19426202 2.625 7.6875 C2.69976562 8.49574219 2.77453125 9.30398437 2.8515625 10.13671875 C2.90054688 10.75160156 2.94953125 11.36648437 3 12 C3.66 12 4.32 12 5 12 C5 9.36 5 6.72 5 4 C7.45391569 7.68087353 7.22802759 10.44355588 7.125 14.6875 C7.11597656 15.38939453 7.10695312 16.09128906 7.09765625 16.81445312 C7.07413704 18.54311525 7.03826713 20.27160145 7 22 C6.67 21.34 6.34 20.68 6 20 C5.34 20 4.68 20 4 20 C3.32550034 17.60612843 2.66023359 15.21030779 2 12.8125 C1.80921875 12.13896484 1.6184375 11.46542969 1.421875 10.77148438 C0.4174164 7.09444844 -0.23704741 3.8149818 0 0 Z " fill="#959595" transform="translate(187,164)"/>
<path d="M0 0 C0.33 0 0.66 0 1 0 C1.33 8.25 1.66 16.5 2 25 C-1.46245192 18.07509617 -2.54042395 10.70104122 -2 3 C-1.34 2.01 -0.68 1.02 0 0 Z " fill="#999999" transform="translate(266,167)"/>
<path d="M0 0 C0.66 0 1.32 0 2 0 C1.55135776 2.79354568 1.09158769 5.58444672 0.625 8.375 C0.49867188 9.1690625 0.37234375 9.963125 0.2421875 10.78125 C0.11328125 11.54179688 -0.015625 12.30234375 -0.1484375 13.0859375 C-0.32125244 14.1385376 -0.32125244 14.1385376 -0.49755859 15.21240234 C-1 17 -1 17 -3 19 C-3 16.03 -3 13.06 -3 10 C-3.66 10 -4.32 10 -5 10 C-3.66749209 6.4124787 -2.169283 3.1635377 0 0 Z " fill="#8D8D8D" transform="translate(335,46)"/>
<path d="M0 0 C0.84062397 3.09773244 1.08935201 5.78332751 1 9 C1.66 8.01 2.32 7.02 3 6 C2.28547412 10.76350585 1.20465156 15.34201396 0 20 C-0.99 19.34 -1.98 18.68 -3 18 C-2.51679152 11.7945858 -1.66681876 6.00054754 0 0 Z " fill="#6A6A6A" transform="translate(309,108)"/>
<path d="M0 0 C2.27138348 2.93301771 4.26869942 5.95068793 6.1875 9.125 C6.71730469 9.99382812 7.24710938 10.86265625 7.79296875 11.7578125 C9 14 9 14 9 16 C5.20324457 14.5276199 3.75375977 12.58072974 1.6875 9.125 C1.15511719 8.26132813 0.62273437 7.39765625 0.07421875 6.5078125 C-1.1081058 3.74762209 -1.08908636 2.73863822 0 0 Z " fill="#414141" transform="translate(181,216)"/>
<path d="M0 0 C0.33 0 0.66 0 1 0 C2.03590199 5.05002222 2.10251672 9.87416389 2 15 C1.34 15 0.68 15 0 15 C-0.99 11.37 -1.98 7.74 -3 4 C-2.01 4.33 -1.02 4.66 0 5 C0 3.35 0 1.7 0 0 Z " fill="#7E7E7E" transform="translate(234,190)"/>
<path d="M0 0 C2.03219488 3.40351338 2.36891039 6.3232927 2.625 10.25 C2.69976562 11.32765625 2.77453125 12.4053125 2.8515625 13.515625 C2.92503906 14.74539062 2.92503906 14.74539062 3 16 C-0.54622073 12.73747692 -1.55888874 10.85222386 -2 6 C-1.34 6 -0.68 6 0 6 C0 4.02 0 2.04 0 0 Z " fill="#ACACAC" transform="translate(173,190)"/>
<path d="M0 0 C0.66 0.33 1.32 0.66 2 1 C2 3.31 2 5.62 2 8 C1.34 8 0.68 8 0 8 C-0.66 10.97 -1.32 13.94 -2 17 C-2.33 17 -2.66 17 -3 17 C-2.22095672 5.47835991 -2.22095672 5.47835991 0 0 Z " fill="#2D2D2D" transform="translate(137,80)"/>
<path d="M0 0 C3 3 3 3 3.29296875 5.48046875 C3.25816406 6.37378906 3.22335937 7.26710937 3.1875 8.1875 C3.16042969 9.08855469 3.13335937 9.98960937 3.10546875 10.91796875 C3.07066406 11.60503906 3.03585937 12.29210937 3 13 C2.01 13 1.02 13 0 13 C0 8.71 0 4.42 0 0 Z " fill="#1F1F1F" transform="translate(300,199)"/>
<path d="M0 0 C0 3.63 0 7.26 0 11 C-0.33 11 -0.66 11 -1 11 C-1.33 9.02 -1.66 7.04 -2 5 C-2.66 6.32 -3.32 7.64 -4 9 C-4.66 9 -5.32 9 -6 9 C-3.83333333 0 -3.83333333 0 0 0 Z " fill="#969696" transform="translate(278,51)"/>
<path d="M0 0 C0.33 0 0.66 0 1 0 C1.66 1.98 2.32 3.96 3 6 C4.98 6 6.96 6 9 6 C6.09907498 7.93395001 5.10325263 8.30131941 1.8125 8.625 C0.554375 8.74875 -0.70375 8.8725 -2 9 C-1.34 8.67 -0.68 8.34 0 8 C-0.2784375 6.8553125 -0.2784375 6.8553125 -0.5625 5.6875 C-1 3 -1 3 0 0 Z " fill="#1F1F1F" transform="translate(236,202)"/>
<path d="M0 0 C2.86453858 3.41016497 4.34703566 6.90694544 6 11 C2.18712958 9.55373881 0.67292823 7.69805188 -1 4 C-0.6875 1.6875 -0.6875 1.6875 0 0 Z " fill="#202020" transform="translate(199,199)"/>
<path d="M0 0 C1.12377697 3.30435084 0.89554742 5.0506862 -0.4375 8.25 C-0.72496094 8.95640625 -1.01242187 9.6628125 -1.30859375 10.390625 C-1.53675781 10.92171875 -1.76492188 11.4528125 -2 12 C-2.33 12 -2.66 12 -3 12 C-3.15384615 4 -3.15384615 4 -2 1 C-1.34 0.67 -0.68 0.34 0 0 Z " fill="#EEEEEE" transform="translate(312,107)"/>
<path d="M0 0 C-1.55603771 3.81936528 -3.95604931 6.26044438 -7 9 C-7.66 9 -8.32 9 -9 9 C-7.45665977 5.21180126 -4.44676575 0 0 0 Z " fill="#A8A8A8" transform="translate(376,89)"/>
<path d="M0 0 C0.33 0 0.66 0 1 0 C2.33257403 9.41002278 2.33257403 9.41002278 1 14 C0.34 14 -0.32 14 -1 14 C-1.08333357 9.1666528 -0.95261487 4.76307437 0 0 Z " fill="#8F8F8F" transform="translate(334,204)"/>
<path d="M0 0 C-1.38188453 3.21043882 -2.92421903 5.04936365 -5.625 7.25 C-6.57246094 8.03117187 -6.57246094 8.03117187 -7.5390625 8.828125 C-8.02117187 9.21484375 -8.50328125 9.6015625 -9 10 C-7.6834994 5.81113445 -4.97532335 0 0 0 Z " fill="#A9A9A9" transform="translate(147,304)"/>
<path d="M0 0 C-1 2 -1 2 -3.06640625 2.8515625 C-4.30197266 3.23441406 -4.30197266 3.23441406 -5.5625 3.625 C-6.80193359 4.01558594 -6.80193359 4.01558594 -8.06640625 4.4140625 C-8.70449219 4.60742188 -9.34257812 4.80078125 -10 5 C-10.66 4.34 -11.32 3.68 -12 3 C-4.71428571 -0.42857143 -4.71428571 -0.42857143 0 0 Z " fill="#5C5C5C" transform="translate(225,214)"/>
<path d="M0 0 C0.66 0.33 1.32 0.66 2 1 C0.88200014 2.33920838 -0.24461897 3.67122556 -1.375 5 C-2.00148437 5.7425 -2.62796875 6.485 -3.2734375 7.25 C-4.12808594 8.11625 -4.12808594 8.11625 -5 9 C-5.66 9 -6.32 9 -7 9 C-5.44499019 5.18315774 -2.96404505 2.80804268 0 0 Z " fill="#969696" transform="translate(227,37)"/>
<path d="M0 0 C1.485 0.99 1.485 0.99 3 2 C3.29296875 4.1640625 3.29296875 4.1640625 3.1875 6.625 C3.16042969 7.44226563 3.13335937 8.25953125 3.10546875 9.1015625 C3.07066406 9.72804687 3.03585937 10.35453125 3 11 C2.34 11 1.68 11 1 11 C0.67 7.37 0.34 3.74 0 0 Z " fill="#292929" transform="translate(266,188)"/>
<path d="M0 0 C1.258125 0.226875 2.51625 0.45375 3.8125 0.6875 C3.8125 1.6775 3.8125 2.6675 3.8125 3.6875 C2.760625 3.44 2.760625 3.44 1.6875 3.1875 C-1.32638194 2.66334662 -4.13463625 2.61650317 -7.1875 2.6875 C-5.15110924 -0.49436057 -3.4972064 -0.45804119 0 0 Z " fill="#7D7D7D" transform="translate(195.1875,314.3125)"/>
<path d="M0 0 C0.66 0 1.32 0 2 0 C1.34 3.63 0.68 7.26 0 11 C-0.33 11 -0.66 11 -1 11 C-2.25 3.375 -2.25 3.375 0 0 Z " fill="#5A5A5A" transform="translate(335,46)"/>
<path d="M0 0 C-1.28519565 2.86697492 -2.57129254 4.97607712 -5 7 C-5.66 7 -6.32 7 -7 7 C-3.86206897 0 -3.86206897 0 0 0 Z " fill="#A1A1A1" transform="translate(304,304)"/>
<path d="M0 0 C-1 3 -1 3 -3 4 C-4.99960012 4.039992 -7.00047242 4.04346799 -9 4 C-6.43425105 1.43425105 -3.68548192 0 0 0 Z " fill="#5B5B5B" transform="translate(223,34)"/>
<path d="M0 0 C-2.59482129 2.59482129 -4.39883625 2.69990302 -8 3 C-8.66 2.34 -9.32 1.68 -10 1 C-6.52674819 -0.1577506 -3.63932552 -0.06866652 0 0 Z " fill="#3E3E3E" transform="translate(233,212)"/>
<path d="M0 0 C2 1 2 1 2 1 Z " fill="#000000" transform="translate(295,213)"/>
<path d="" fill="#000000" transform="translate(0,0)"/>
<path d="" fill="#000000" transform="translate(0,0)"/>
<path d="" fill="#000000" transform="translate(0,0)"/>
<path d="" fill="#000000" transform="translate(0,0)"/>
<path d="" fill="#000000" transform="translate(0,0)"/>
<path d="" fill="#000000" transform="translate(0,0)"/>
<path d="" fill="#000000" transform="translate(0,0)"/>
<path d="" fill="#000000" transform="translate(0,0)"/>
<path d="" fill="#000000" transform="translate(0,0)"/>
<path d="" fill="#000000" transform="translate(0,0)"/>
<path d="" fill="#000000" transform="translate(0,0)"/>
<path d="" fill="#000000" transform="translate(0,0)"/>
<path d="" fill="#000000" transform="translate(0,0)"/>
<path d="" fill="#000000" transform="translate(0,0)"/>
<path d="" fill="#000000" transform="translate(0,0)"/>
<path d="" fill="#000000" transform="translate(0,0)"/>
<path d="" fill="#000000" transform="translate(0,0)"/>
<path d="" fill="#000000" transform="translate(0,0)"/>
<path d="" fill="#000000" transform="translate(0,0)"/>
<path d="" fill="#000000" transform="translate(0,0)"/>
<path d="" fill="#000000" transform="translate(0,0)"/>
<path d="" fill="#000000" transform="translate(0,0)"/>
<path d="" fill="#000000" transform="translate(0,0)"/>
<path d="" fill="#000000" transform="translate(0,0)"/>
<path d="" fill="#000000" transform="translate(0,0)"/>
<path d="" fill="#000000" transform="translate(0,0)"/>
<path d="" fill="#000000" transform="translate(0,0)"/>
<path d="" fill="#000000" transform="translate(0,0)"/>
<path d="" fill="#000000" transform="translate(0,0)"/>
<path d="" fill="#000000" transform="translate(0,0)"/>
<path d="" fill="#000000" transform="translate(0,0)"/>
<path d="" fill="#000000" transform="translate(0,0)"/>
<path d="" fill="#000000" transform="translate(0,0)"/>
<path d="" fill="#000000" transform="translate(0,0)"/>
<path d="" fill="#000000" transform="translate(0,0)"/>
<path d="" fill="#000000" transform="translate(0,0)"/>
<path d="" fill="#000000" transform="translate(0,0)"/>
<path d="" fill="#000000" transform="translate(0,0)"/>
<path d="" fill="#000000" transform="translate(0,0)"/>
<path d="" fill="#000000" transform="translate(0,0)"/>
<path d="" fill="#000000" transform="translate(0,0)"/>
<path d="" fill="#000000" transform="translate(0,0)"/>
<path d="" fill="#000000" transform="translate(0,0)"/>
<path d="" fill="#000000" transform="translate(0,0)"/>
<path d="" fill="#000000" transform="translate(0,0)"/>
<path d="" fill="#000000" transform="translate(0,0)"/>
<path d="" fill="#000000" transform="translate(0,0)"/>
<path d="" fill="#000000" transform="translate(0,0)"/>
<path d="" fill="#000000" transform="translate(0,0)"/>
<path d="" fill="#000000" transform="translate(0,0)"/>
<path d="" fill="#000000" transform="translate(0,0)"/>
<path d="" fill="#000000" transform="translate(0,0)"/>
</svg>
