<?xml version="1.0" encoding="UTF-8"?>
<svg version="1.1" xmlns="http://www.w3.org/2000/svg" width="500" height="500">
<path d="M0 0 C0.65081543 0.27038086 1.30163086 0.54076172 1.97216797 0.81933594 C9.99886222 4.19182717 17.48880011 8.3220712 24.9375 12.8125 C26.13838257 13.53324707 26.13838257 13.53324707 27.36352539 14.26855469 C28.46555298 14.94966309 28.46555298 14.94966309 29.58984375 15.64453125 C30.24847412 16.05034424 30.90710449 16.45615723 31.58569336 16.87426758 C32.05241455 17.24575928 32.51913574 17.61725098 33 18 C33 18.66 33 19.32 33 20 C34.32 20.33 35.64 20.66 37 21 C37 21.66 37 22.32 37 23 C38.65 23.66 40.3 24.32 42 25 C42 25.66 42 26.32 42 27 C42.59006836 27.26554687 43.18013672 27.53109375 43.78808594 27.8046875 C46.06123216 29.0330897 47.56567192 30.30744396 49.390625 32.125 C50.01437012 32.74463623 50.63811523 33.36427246 51.28076172 34.00268555 C52.25553467 34.9913562 52.25553467 34.9913562 53.25 36 C53.91660645 36.67264893 54.58321289 37.34529785 55.27001953 38.03833008 C68.94073669 51.98392761 68.94073669 51.98392761 70 58 C70.66 58 71.32 58 72 58 C96.83722262 89.68424074 104.34489941 134.86318195 99.875 173.8125 C95.02513242 211.30559215 78.08908789 244.62378284 51 271 C50.53851563 271.495 50.07703125 271.99 49.6015625 272.5 C24.99946968 298.42220512 -14.19924961 316.11737684 -49.83520508 317.10644531 C-53.63549919 317.17075403 -57.43505229 317.18569256 -61.23583984 317.18530273 C-63.59881988 317.18747592 -65.96132171 317.20564512 -68.32421875 317.22460938 C-81.30964887 317.27404241 -93.92117738 316.21145626 -106.5 312.75 C-107.29768799 312.53384033 -108.09537598 312.31768066 -108.91723633 312.0949707 C-131.70486187 305.71516337 -156.94380152 293.76711037 -174 277 C-174 276.34 -174 275.68 -174 275 C-174.56589844 274.75765625 -175.13179687 274.5153125 -175.71484375 274.265625 C-200.09953931 260.76025515 -216.31410696 223.25644801 -223.68359375 197.98046875 C-234.41772675 158.78331834 -231.10577549 116.51584972 -213 80 C-212.67386719 79.29875 -212.34773438 78.5975 -212.01171875 77.875 C-204.16372606 61.28012559 -192.59229051 47.17563944 -180 34 C-179.27554688 33.22785156 -178.55109375 32.45570312 -177.8046875 31.66015625 C-176 30 -176 30 -174 30 C-174 29.34 -174 28.68 -174 28 C-172.70581055 26.7824707 -172.70581055 26.7824707 -170.88671875 25.42578125 C-170.2215625 24.9265918 -169.55640625 24.42740234 -168.87109375 23.91308594 C-168.15050781 23.38489258 -167.42992187 22.85669922 -166.6875 22.3125 C-165.95273438 21.77012695 -165.21796875 21.22775391 -164.4609375 20.66894531 C-150.01747844 10.08930126 -134.87600879 2.0008401 -118 -4 C-117.10925781 -4.34675781 -116.21851563 -4.69351563 -115.30078125 -5.05078125 C-79.07810595 -18.43405215 -35.03891786 -14.89174442 0 0 Z M-84 3 C-82.865625 3.28875 -81.73125 3.5775 -80.5625 3.875 C-79.386875 4.24625 -78.21125 4.6175 -77 5 C-70.85325119 17.29349762 -77.41846114 40.2070813 -79.4375 53.125 C-79.93028666 56.36532077 -80.41867717 59.60626232 -80.90455627 62.84762573 C-81.20457759 64.8396888 -81.50916566 66.83107228 -81.81944275 68.82156372 C-83.92040101 81.61692747 -83.92040101 81.61692747 -83.2578125 94.47265625 C-83.07863281 95.55611328 -82.89945313 96.63957031 -82.71484375 97.75585938 C-82.52019531 98.84705078 -82.32554687 99.93824219 -82.125 101.0625 C-81.93808594 102.18849609 -81.75117188 103.31449219 -81.55859375 104.47460938 C-80.79709242 109.89597759 -80.79709242 109.89597759 -79 115 C-79.97839844 115.29132813 -80.95679688 115.58265625 -81.96484375 115.8828125 C-89.7385546 118.27854057 -96.66905695 120.6978352 -103 126 C-103.61875 126.47695312 -104.2375 126.95390625 -104.875 127.4453125 C-108.0225578 130.34514585 -108.92172679 132.23325916 -109.36328125 136.55859375 C-109.37386191 140.06079202 -109.26150979 143.50835997 -109 147 C-102.31038597 145.00670643 -95.63972138 142.95986372 -88.98046875 140.8671875 C-69.31364479 135.14499232 -48.95783215 139.68317842 -31.390625 149.1953125 C-28.62216671 150.66884675 -25.93532747 151.91325663 -23 153 C-21.64381501 151.87465895 -21.64381501 151.87465895 -21.9375 148.9375 C-21.958125 147.968125 -21.97875 146.99875 -22 146 C-21.01 146.33 -20.02 146.66 -19 147 C-15.28577229 142.11618569 -13.79209727 137.55443329 -12.375 131.625 C-12.17132813 130.81289062 -11.96765625 130.00078125 -11.7578125 129.1640625 C-10.98600981 126.07685175 -10.21494764 122.99237402 -9.54125977 119.88208008 C-8.43540331 114.955666 -6.6360923 110.84210564 -4.1875 106.4375 C-3.83365234 105.78563721 -3.47980469 105.13377441 -3.11523438 104.4621582 C-0.69356396 100.06598831 2.00294514 96.02729246 5 92 C5 91.34 5 90.68 5 90 C5.66 90 6.32 90 7 90 C8.19542478 88.31874988 9.30712843 86.57751917 10.375 84.8125 C12.15578875 81.88243569 13.89113653 79.13319281 16.0625 76.4765625 C19.24856182 72.40405606 21.00958231 67.74042941 23 63 C23.433125 61.989375 23.86625 60.97875 24.3125 59.9375 C25.9456571 52.95946511 25.81031728 47.74182177 22.375 41.3125 C9.83944207 21.68612143 -7.22049915 9.94710528 -29.875 4.8125 C-57.4582502 -1.80083856 -57.4582502 -1.80083856 -84 3 Z M-96.0625 6.1875 C-103.02514834 9.39915272 -109.98617613 11.54726002 -117.43969727 13.31323242 C-124.54018814 15.01185268 -130.40425081 17.08252344 -136 22 C-135.03320312 22.33386719 -134.06640625 22.66773437 -133.0703125 23.01171875 C-130 25 -130 25 -129.1171875 28.33203125 C-129.009743 29.82383687 -128.9318443 31.31791074 -128.875 32.8125 C-128.74957822 34.60831967 -128.62031467 36.40387307 -128.48828125 38.19921875 C-128.41818848 39.24384277 -128.3480957 40.2884668 -128.27587891 41.36474609 C-127.76225238 48.13279826 -127.03442997 54.87980865 -126.32305908 61.62948608 C-126.06948741 64.05807787 -125.82570059 66.487488 -125.58349609 68.91723633 C-124.7751254 76.86460823 -123.80879022 84.76359514 -122.51953125 92.6484375 C-122.40440689 93.3628299 -122.28928253 94.07722229 -122.17066956 94.81326294 C-120.31239421 105.71562423 -117.17139612 117.72299809 -111 127 C-109.515 127.99 -109.515 127.99 -108 129 C-107.56429687 128.61328125 -107.12859375 128.2265625 -106.6796875 127.828125 C-99.67699433 121.70455782 -93.82753283 118.42753373 -84.73046875 116.125 C-81.96005502 115.29445262 -81.96005502 115.29445262 -80.97265625 113.34765625 C-81.01359243 109.83299254 -82.12137635 106.72672085 -83.25 103.4375 C-91.9266289 77.43328379 -102.5647631 38.96087412 -91.85546875 12.1328125 C-89.97018501 8.56729098 -87.92815735 5.77449312 -85 3 C-89.4470972 3 -92.16958802 4.32119923 -96.0625 6.1875 Z M-144 37 C-147.98158374 50.68460293 -143.23654221 61.98903197 -138.01318359 74.51855469 C-134.57909687 82.92917093 -131.72518587 91.49947982 -130.5546875 100.53515625 C-130.07529728 103.13285166 -130.07529728 103.13285166 -128.58984375 105.79296875 C-126.73317906 109.53823095 -125.74873328 113.2255011 -124.6875 117.25 C-122.31675179 125.74296984 -119.56078712 133.8293972 -112 139 C-111.690625 137.906875 -111.38125 136.81375 -111.0625 135.6875 C-110.41662103 133.44592006 -109.7376883 131.2130649 -109 129 C-109.5775 128.46375 -110.155 127.9275 -110.75 127.375 C-115.1445468 122.73631172 -117.80455147 117.68350731 -119.875 111.6875 C-120.12620605 110.96675293 -120.37741211 110.24600586 -120.63623047 109.50341797 C-125.02778908 96.40516455 -127.8609379 82.76969744 -130.58544922 69.24243164 C-133.90594182 52.15735646 -133.90594182 52.15735646 -142 37 C-142.66 37 -143.32 37 -144 37 Z M-192 172 C-197.65289091 179.61692428 -200.77798785 186.89543509 -199.54296875 196.44140625 C-197.73841641 204.9448723 -193.66739964 211.30756833 -186.5 216.1875 C-177.99632614 221.70615136 -169.6191165 223.07326423 -159.5 221.25 C-155.90655848 220.39553345 -153.01035014 219.2075901 -150 217 C-151.94304077 211.15251016 -151.94304077 211.15251016 -156 207 C-157.90316785 207.46744473 -159.80471045 207.94681562 -161.68359375 208.50390625 C-166.99968138 209.64242755 -172.21131431 208.57372937 -177.3125 206.9375 C-181.63635841 203.82029975 -184.3893872 200.04775434 -185.44921875 194.7578125 C-185.73102817 189.14105925 -184.30271806 184.54766786 -181 180 C-176.43880332 175.86310068 -171.99934465 174.87927015 -166 175 C-162.28739818 175.48446096 -158.65094086 176.17427319 -155 177 C-152.66053731 173.67947232 -150.82292254 170.98467756 -150 167 C-151.24735567 166.3490741 -152.49801832 165.70448331 -153.75 165.0625 C-154.44609375 164.70285156 -155.1421875 164.34320313 -155.859375 163.97265625 C-167.866503 158.51686269 -183.02723497 162.79162626 -192 172 Z M-47 169 C-47 169.66 -47 170.32 -47 171 C-47.60585938 171.25394531 -48.21171875 171.50789062 -48.8359375 171.76953125 C-53.45058963 174.3933858 -55.51334303 179.70224807 -57.3125 184.5 C-59.13568461 193.78166711 -57.62156383 201.60103273 -52.3046875 209.52734375 C-46.07577417 217.10543467 -39.26208489 220.9165534 -29.5 221.9375 C-22.36499527 222.2235733 -15.88947053 221.96483996 -9.875 217.875 C-9.25625 217.25625 -8.6375 216.6375 -8 216 C-9.65 213.03 -11.3 210.06 -13 207 C-14.27875 207.350625 -15.5575 207.70125 -16.875 208.0625 C-23.35031499 209.4901285 -29.1633792 209.0506003 -35.375 206.75 C-39.29177673 204.13881551 -41.51191539 201.46425383 -43 197 C-43.53476918 191.02498278 -43.51280722 186.0875139 -40 181 C-35.86808169 176.49245275 -30.93154468 175.35800818 -25 175 C-20.89920628 175.40573224 -17.04509856 176.15335146 -13 177 C-11.35 173.7 -9.7 170.4 -8 167 C-9.2375 166.360625 -10.475 165.72125 -11.75 165.0625 C-12.44609375 164.70285156 -13.1421875 164.34320313 -13.859375 163.97265625 C-24.79323103 159.00453554 -37.61297527 162.11618187 -47 169 Z M-82 180.9375 C-83.093125 181.11152344 -84.18625 181.28554688 -85.3125 181.46484375 C-87.90822052 181.72308791 -87.90822052 181.72308791 -89 183 C-88.82172727 191.07712616 -87.4482079 199.07000723 -86 207 C-82.52739321 207.83268546 -79.72306709 208.03742692 -76.1875 207.5625 C-75.39730469 207.46066406 -74.60710937 207.35882813 -73.79296875 207.25390625 C-72.90544922 207.12822266 -72.90544922 207.12822266 -72 207 C-71.67 205.68 -71.34 204.36 -71 203 C-74.57644848 201.7619986 -77.33694766 202.25073929 -81 203 C-81.33 201.02 -81.66 199.04 -82 197 C-79.03 196.67 -76.06 196.34 -73 196 C-73.33 194.35 -73.66 192.7 -74 191 C-76.64 191.33 -79.28 191.66 -82 192 C-82.33 190.02 -82.66 188.04 -83 186 C-78.545 185.505 -78.545 185.505 -74 185 C-74.33 183.35 -74.66 181.7 -75 180 C-77.33266627 180 -79.70741223 180.56711731 -82 180.9375 Z M-146.9375 188.6875 C-148.52823092 193.64683757 -148.42948741 198.11034948 -146.08984375 202.83984375 C-143.39303945 206.57880294 -140.43306772 208.05242793 -136.0703125 208.8984375 C-132.7028943 209.0636316 -130.1418199 208.17818246 -127 207 C-127 206.34 -127 205.68 -127 205 C-126.34 205 -125.68 205 -125 205 C-121.97991334 199.96652223 -121.45493421 196.72319081 -122 191 C-123.77517414 186.88907041 -126.13768634 184.26701019 -130 182 C-137.33684723 180.65739764 -142.49412661 182.5241111 -146.9375 188.6875 Z M-115 182 C-115 190.58 -115 199.16 -115 208 C-104.8046798 208.68088291 -104.8046798 208.68088291 -99 206 C-95.55115523 202.55115523 -94.1952998 199.882495 -94 195 C-94.69394271 190.60502953 -95.63489139 187.97999434 -99 185.125 C-105.3564555 180.62251069 -104.63396849 182 -115 182 Z M53.25 184 C51.77273438 184.2784375 51.77273438 184.2784375 50.265625 184.5625 C49.51796875 184.706875 48.7703125 184.85125 48 185 C48.47683572 188.39616487 48.95688069 191.79186868 49.4375 195.1875 C49.57220703 196.14720703 49.70691406 197.10691406 49.84570312 198.09570312 C49.97783203 199.02705078 50.10996094 199.95839844 50.24609375 200.91796875 C50.36654053 201.77156982 50.4869873 202.6251709 50.61108398 203.50463867 C51.00322148 206.02066964 51.48265373 208.50697664 52 211 C53.98 210.67 55.96 210.34 58 210 C57.34 206.37 56.68 202.74 56 199 C58.64 198.67 61.28 198.34 64 198 C64 196.68 64 195.36 64 194 C59.34947128 193.73067479 59.34947128 193.73067479 55 195 C54.67 193.02 54.34 191.04 54 189 C56.64 188.67 59.28 188.34 62 188 C62.33 186.35 62.66 184.7 63 183 C59.52023497 183 56.64461639 183.3534064 53.25 184 Z M0 185 C0 193.58 0 202.16 0 211 C1.32 211 2.64 211 4 211 C4 207.37 4 203.74 4 200 C7.3 200 10.6 200 14 200 C14 203.63 14 207.26 14 211 C15.65 211 17.3 211 19 211 C19 202.42 19 193.84 19 185 C17.35 185 15.7 185 14 185 C14 188.3 14 191.6 14 195 C10.7 195 7.4 195 4 195 C4 191.7 4 188.4 4 185 C2.68 185 1.36 185 0 185 Z M28 185 C28 193.58 28 202.16 28 211 C32.62 211 37.24 211 42 211 C42 209.35 42 207.7 42 206 C39.03 206 36.06 206 33 206 C33 204.02 33 202.04 33 200 C35.64 200 38.28 200 41 200 C41 198.35 41 196.7 41 195 C38.36 195 35.72 195 33 195 C33 193.02 33 191.04 33 189 C35.97 189 38.94 189 42 189 C42 187.68 42 186.36 42 185 C37.38 185 32.76 185 28 185 Z M-95 242 C-101.44388517 242.61258141 -106.26905949 241.99005592 -112 239 C-112.37497746 243.68721819 -112.48459497 247.04875802 -110.3125 251.3125 C-107.21331893 254.91425097 -104.54213163 257.48595612 -100 259 C-88.545079 259.77316356 -88.545079 259.77316356 -78 256 C-76.9275 255.401875 -75.855 254.80375 -74.75 254.1875 C-71.58481325 251.66973781 -70.32169654 249.8095959 -69 246 C-69.07694154 242.76845533 -69.73613493 241.36535163 -71.625 238.75 C-79.5093886 232.94045051 -87.27366086 238.13683043 -95 242 Z M-61 238 C-63.48386059 241.72579089 -63.3804212 243.58711402 -63 248 C-60.41639675 253.46368555 -56.85916765 255.32446758 -51.53125 257.8203125 C-44.71439732 260.0976239 -37.23207152 260.57027088 -30.41015625 258.0390625 C-28.37298562 256.84786775 -26.7268036 255.60218891 -25 254 C-24.195625 253.278125 -23.39125 252.55625 -22.5625 251.8125 C-20.28119495 247.70615091 -20.18000194 243.63504984 -20 239 C-20.763125 239.309375 -21.52625 239.61875 -22.3125 239.9375 C-28.32325889 242.31384654 -33.57178319 243.34697313 -39.75390625 240.91796875 C-41.62464045 240.01512485 -43.49186286 239.10496752 -45.35546875 238.1875 C-50.61866512 235.82411493 -55.80359574 234.94329161 -61 238 Z " fill="#070707" transform="translate(316,89)"/>
<path d="M0 0 C2.69990662 1.79993774 4.5418865 3.083773 6 6 C6.87565928 21.65228738 4.97463917 36.69200445 2.5625 52.125 C2.06971334 55.36532077 1.58132283 58.60626232 1.09544373 61.84762573 C0.79542241 63.8396888 0.49083434 65.83107228 0.18055725 67.82156372 C-1.92611366 80.65395521 -1.92611366 80.65395521 -1.22265625 93.54296875 C-1.03896484 94.63544922 -0.85527344 95.72792969 -0.66601562 96.85351562 C-0.46685547 97.95373047 -0.26769531 99.05394531 -0.0625 100.1875 C0.13279297 101.33025391 0.32808594 102.47300781 0.52929688 103.65039062 C1.00716219 106.43599574 1.49754852 109.21874371 2 112 C4.31 112.33 6.62 112.66 9 113 C9 113.33 9 113.66 9 114 C8.10539062 114.17015625 7.21078125 114.3403125 6.2890625 114.515625 C-3.51759193 116.48113783 -13.02434796 118.65573133 -21 125 C-21.82177734 125.65162109 -21.82177734 125.65162109 -22.66015625 126.31640625 C-27.80500905 131.16935251 -27.778689 136.35875851 -27.9921875 143.18359375 C-27.99476563 144.11300781 -27.99734375 145.04242188 -28 146 C-27.34 146.33 -26.68 146.66 -26 147 C-26.99 147.33 -27.98 147.66 -29 148 C-29.33 145.36 -29.66 142.72 -30 140 C-30.66 140 -31.32 140 -32 140 C-32.13932264 132.61590015 -29.04859878 128.89411733 -24.421875 123.3203125 C-21.93477985 120.93751489 -20.23380324 120.05073102 -17 119 C-15.53900129 118.33919493 -14.08059615 117.67262205 -12.625 117 C-8.79940149 115.2826459 -5.05963439 114.0365024 -1 113 C-2.10311459 107.64587787 -3.43396052 102.43675454 -5.0559082 97.2175293 C-12.57374044 72.69906192 -22.01033257 36.16780496 -11.8203125 11.09765625 C-10.15333729 7.97577663 -8.50302792 5.50302792 -6 3 C-7.299375 3.4640625 -7.299375 3.4640625 -8.625 3.9375 C-11.76150738 4.92491899 -14.75067413 5.53581059 -18 6 C-13.1351439 1.74325091 -6.4793025 -1.0078915 0 0 Z " fill="#1D1D1D" transform="translate(235,90)"/>
<path d="M0 0 C2.875 0.875 2.875 0.875 4.875 2.875 C5.27072724 5.47549326 5.54042047 8.00699122 5.75 10.625 C5.91390264 12.42982086 6.07941617 14.23449579 6.24609375 16.0390625 C6.38893799 17.6154248 6.38893799 17.6154248 6.53466797 19.22363281 C7.16521195 25.98863696 7.85615524 32.74734566 8.55596924 39.50549316 C8.80569833 41.93386056 9.0482637 44.36287048 9.29052734 46.79199219 C10.10029056 54.73929986 11.06619545 62.63850747 12.35546875 70.5234375 C12.47059311 71.2378299 12.58571747 71.95222229 12.70433044 72.68826294 C14.63787558 84.03222642 18.26069779 94.81244296 23.875 104.875 C24.205 105.535 24.535 106.195 24.875 106.875 C18.90338695 104.26714367 16.85033415 99.19571378 14.43359375 93.4453125 C8.42411073 77.76814276 5.11932849 61.16561813 1.8125 44.75 C-1.08017553 29.93037555 -1.08017553 29.93037555 -8.125 16.875 C-8.125 16.215 -8.125 15.555 -8.125 14.875 C-8.785 14.875 -9.445 14.875 -10.125 14.875 C-10.455 20.815 -10.785 26.755 -11.125 32.875 C-11.455 32.875 -11.785 32.875 -12.125 32.875 C-12.73337769 21.46453838 -12.98996755 10.79473444 -5.1484375 1.54296875 C-3.125 -0.125 -3.125 -0.125 0 0 Z " fill="#2B2B2B" transform="translate(182.125,111.125)"/>
<path d="M0 0 C-4.23989527 14.36216778 -8.91666482 28.55052138 -14.44433594 42.47070312 C-16.41437003 47.44321919 -18.24837983 52.44664297 -20 57.5 C-24.17745131 69.51420956 -28.65385949 81.45233649 -34 93 C-34.66 92.67 -35.32 92.34 -36 92 C-35.30390625 90.43378906 -35.30390625 90.43378906 -34.59375 88.8359375 C-32.38442566 82.94181284 -32.05309646 76.8524564 -31.5 70.625 C-30.76206262 62.37103376 -29.71369939 54.8380759 -27 47 C-26.67370605 46.00468262 -26.34741211 45.00936523 -26.01123047 43.98388672 C-24.92665392 40.68926728 -23.81022109 37.4068001 -22.6875 34.125 C-22.32205078 33.03058594 -21.95660156 31.93617188 -21.58007812 30.80859375 C-11.02494453 0 -11.02494453 0 0 0 Z " fill="#272727" transform="translate(329,124)"/>
<path d="M0 0 C5.53846154 3.07692308 5.53846154 3.07692308 7 6 C7.14714038 7.39412712 7.23893399 8.79432953 7.30102539 10.19482422 C7.34069931 11.06172882 7.38037323 11.92863342 7.42124939 12.82180786 C7.47763329 14.23645828 7.47763329 14.23645828 7.53515625 15.6796875 C7.57689468 16.66025116 7.61863312 17.64081482 7.66163635 18.65109253 C8.13832599 30.45448398 8.31954295 42.26576592 8.47680664 54.07714844 C8.65046775 69.64144843 8.65046775 69.64144843 11 85 C11.28101563 86.25296875 11.56203125 87.5059375 11.8515625 88.796875 C12.10679687 89.77140625 12.36203125 90.7459375 12.625 91.75 C12.88539063 92.75546875 13.14578125 93.7609375 13.4140625 94.796875 C13.60742188 95.52390625 13.80078125 96.2509375 14 97 C9.69450553 94.84725277 8.50791936 88.36805349 7 84 C3.66891799 72.21717104 2.05116805 60.47998257 0.9375 48.3125 C-0.49689267 27.74559023 -0.49689267 27.74559023 -7.9921875 8.91015625 C-9.40499806 6.23238739 -9.37944041 3.95963522 -9 1 C-5.89046621 -0.5547669 -3.43733239 -0.28644437 0 0 Z " fill="#303030" transform="translate(200,105)"/>
<path d="M0 0 C0.33 0 0.66 0 1 0 C0.56473211 5.13616108 -0.18222358 9.93725586 -1.44140625 14.9375 C-3.10481464 22.02660959 -3.9416555 29.07137785 -4.625 36.3125 C-4.74617188 37.50294922 -4.86734375 38.69339844 -4.9921875 39.91992188 C-6.5398691 55.55655283 -7.13692993 70.93604303 -6.90405273 86.62890625 C-6.87405333 88.80209137 -6.85618727 90.97511326 -6.83984375 93.1484375 C-6.82300537 94.41864746 -6.80616699 95.68885742 -6.78881836 96.99755859 C-7 100 -7 100 -9 102 C-9.48145321 97.89609827 -9.95973524 93.79183263 -10.4375 89.6875 C-10.63956055 87.96563477 -10.63956055 87.96563477 -10.84570312 86.20898438 C-14.29242659 56.53353604 -15.7519653 26.60483124 0 0 Z " fill="#494949" transform="translate(264,95)"/>
<path d="M0 0 C0.66 0 1.32 0 2 0 C0.58890299 10.31996322 -2.55747009 19.90050513 -7 29.296875 C-11.8340648 39.5218371 -14.7664416 48.75437317 -16 60 C-16.09474609 60.84578613 -16.18949219 61.69157227 -16.28710938 62.56298828 C-17.47438975 73.54134762 -18.23502381 84.53398932 -18.65869141 95.56762695 C-18.81776725 99.48130064 -19.0687801 103.17507197 -20 107 C-20.33 107 -20.66 107 -21 107 C-21.44986349 68.78582674 -19.50405024 33.89145353 0 0 Z " fill="#434343" transform="translate(298,99)"/>
<path d="M0 0 C1.875 1 1.875 1 3 3 C3.97304932 7.30921841 4.41959673 9.76743461 3 13.9375 C1 16 1 16 -2.375 17.125 C-6 17 -6 17 -8.9375 15 C-11.47992818 11.30192265 -11.56081709 9.40641997 -11 5 C-8.92157621 -0.64143601 -5.66129706 -0.397284 0 0 Z " fill="#242424" transform="translate(185,276)"/>
<path d="M0 0 C0.33 0 0.66 0 1 0 C2.32 8.25 3.64 16.5 5 25 C7.31 25.33 9.62 25.66 12 26 C12 26.33 12 26.66 12 27 C11.10539062 27.17015625 10.21078125 27.3403125 9.2890625 27.515625 C-0.51759193 29.48113783 -10.02434796 31.65573133 -18 38 C-18.54785156 38.43441406 -19.09570312 38.86882812 -19.66015625 39.31640625 C-24.80500905 44.16935251 -24.778689 49.35875851 -24.9921875 56.18359375 C-24.99476563 57.11300781 -24.99734375 58.04242188 -25 59 C-24.34 59.33 -23.68 59.66 -23 60 C-24.485 60.495 -24.485 60.495 -26 61 C-26.33 58.36 -26.66 55.72 -27 53 C-27.66 53 -28.32 53 -29 53 C-29.13932264 45.61590015 -26.04859878 41.89411733 -21.421875 36.3203125 C-18.93477985 33.93751489 -17.23380324 33.05073102 -14 32 C-12.53900129 31.33919493 -11.08059615 30.67262205 -9.625 30 C-5.79940149 28.2826459 -2.05963439 27.0365024 2 26 C1.80083984 25.12988281 1.80083984 25.12988281 1.59765625 24.2421875 C-1.25774436 11.61172932 -1.25774436 11.61172932 0 7 C0.03888349 4.66699067 0.0448635 2.33290199 0 0 Z " fill="#A0A0A0" transform="translate(232,177)"/>
<path d="M0 0 C0.33 0 0.66 0 1 0 C2.17138988 6.65884048 1.64036529 12.39992903 0.6875 19.0625 C-0.84817135 30.62829907 -1.7015739 42.16379001 -2.3527832 53.80493164 C-2.42456787 55.06039795 -2.49635254 56.31586426 -2.5703125 57.609375 C-2.65949951 59.2795166 -2.65949951 59.2795166 -2.75048828 60.98339844 C-2.9776553 63.72985212 -3.39509955 66.31446672 -4 69 C-4.33 69 -4.66 69 -5 69 C-5.27476457 45.65980636 -5.27119744 22.87699687 0 0 Z " fill="#7D7D7D" transform="translate(282,137)"/>
<path d="M0 0 C5 0 5 0 7.3125 2.0625 C9.44392985 5.77276678 9.67796661 7.78154109 9 12 C6.75 14.9375 6.75 14.9375 4 17 C2.68 17 1.36 17 0 17 C0 11.39 0 5.78 0 0 Z " fill="#252525" transform="translate(207,276)"/>
<path d="M0 0 C0.33 0 0.66 0 1 0 C1.25523437 1.39798828 1.25523437 1.39798828 1.515625 2.82421875 C3.87752807 15.24933652 6.8988245 26.81829174 13 38 C13.33 38.66 13.66 39.32 14 40 C8.59167668 37.63813728 6.36958564 33.35810239 4.20800781 28.05810547 C1.57041833 21.16759804 -1.02668573 14.34620536 -2 7 C-1.34 7 -0.68 7 0 7 C0 4.69 0 2.38 0 0 Z " fill="#656565" transform="translate(193,178)"/>
<path d="M0 0 C0.33 0 0.66 0 1 0 C2.32 8.25 3.64 16.5 5 25 C7.31 25.33 9.62 25.66 12 26 C12 26.33 12 26.66 12 27 C10.60587891 27.29003906 10.60587891 27.29003906 9.18359375 27.5859375 C0.02020085 29.51230285 0.02020085 29.51230285 -9 32 C-9.66 31.34 -10.32 30.68 -11 30 C-6.71 28.68 -2.42 27.36 2 26 C1.5359375 23.958125 1.5359375 23.958125 1.0625 21.875 C-1.22198276 11.48060345 -1.22198276 11.48060345 0 7 C0.03888349 4.66699067 0.0448635 2.33290199 0 0 Z " fill="#CACACA" transform="translate(232,177)"/>
<path d="M0 0 C5.47470816 -0.15207523 10.41893376 0.21665899 15.75 1.5625 C16.43811768 1.73595947 17.12623535 1.90941895 17.83520508 2.08813477 C26.47337671 4.45018958 35.44072622 8.77294408 41 16 C42.3125 19.3125 42.3125 19.3125 43 22 C42.34 22 41.68 22 41 22 C40.62875 21.113125 40.2575 20.22625 39.875 19.3125 C35.72000426 11.97200753 27.92547701 7.72162972 19.96484375 5.40869141 C13.36557157 3.69049466 6.69002511 2.31434678 0 1 C0 0.67 0 0.34 0 0 Z " fill="#EDEDED" transform="translate(253,203)"/>
<path d="M0 0 C0.33 0 0.66 0 1 0 C0.3622098 7.52592433 -1.19889833 14.67098882 -3 22 C-3.33 22 -3.66 22 -4 22 C-4.33 20.02 -4.66 18.04 -5 16 C-5.99 16.99 -6.98 17.98 -8 19 C-6.21440518 12.04634211 -3.7441867 6.12685097 0 0 Z " fill="#484848" transform="translate(264,95)"/>
<path d="M0 0 C0.33 0 0.66 0 1 0 C1.06058594 0.75925781 1.12117188 1.51851562 1.18359375 2.30078125 C1.26738281 3.29464844 1.35117187 4.28851563 1.4375 5.3125 C1.51871094 6.29863281 1.59992188 7.28476563 1.68359375 8.30078125 C1.91812559 11.09375599 1.91812559 11.09375599 3 14 C2.00390625 17.13671875 2.00390625 17.13671875 0.5625 20.6875 C0.08941406 21.86699219 -0.38367188 23.04648438 -0.87109375 24.26171875 C-1.24363281 25.16535156 -1.61617188 26.06898438 -2 27 C-2.99 27 -3.98 27 -5 27 C-4.52949219 25.88625 -4.05898438 24.7725 -3.57421875 23.625 C-1.76562742 18.80208978 -1.23996355 14.10603249 -0.8125 9 C-0.73064453 8.12988281 -0.64878906 7.25976562 -0.56445312 6.36328125 C-0.36641309 4.24308794 -0.18179444 2.12164801 0 0 Z " fill="#ACACAC" transform="translate(298,189)"/>
<path d="M0 0 C0.66 0 1.32 0 2 0 C1.71617054 1.75128818 1.42260471 3.50100003 1.125 5.25 C0.96257812 6.22453125 0.80015625 7.1990625 0.6328125 8.203125 C0.05144152 10.77264117 -0.70840265 12.72071056 -2 15 C-2.33 13.68 -2.66 12.36 -3 11 C-3.99 11.66 -4.98 12.32 -6 13 C-4.58707905 8.1725201 -2.57025846 4.2837641 0 0 Z " fill="#797979" transform="translate(298,99)"/>
<path d="M0 0 C0.33 0 0.66 0 1 0 C1.10957031 0.72703125 1.21914062 1.4540625 1.33203125 2.203125 C2.49669904 9.58882317 4.07859611 16.77552138 6 24 C2.35591522 22.17795761 1.46134876 17.98798206 -0.0234375 14.3671875 C-1.47079811 9.3766881 -1.00171429 5.03832535 0 0 Z " fill="#939393" transform="translate(208,178)"/>
<path d="M0 0 C0.66 0 1.32 0 2 0 C2 4.95 2 9.9 2 15 C2.66 15.33 3.32 15.66 4 16 C3.01 16.33 2.02 16.66 1 17 C0.67 14.36 0.34 11.72 0 9 C-0.66 9 -1.32 9 -2 9 C-1.125 1.125 -1.125 1.125 0 0 Z " fill="#898989" transform="translate(205,221)"/>
<path d="M0 0 C0.33 0 0.66 0 1 0 C2.34495828 7.09705662 3.24091535 13.7725395 3 21 C1 20 1 20 -0.1875 17.9375 C-1.0733085 14.73496159 -0.81894199 12.32515867 -0.29296875 9.0703125 C0.13778926 6.02628922 0.06396141 3.07014768 0 0 Z " fill="#828282" transform="translate(232,177)"/>
<path d="M0 0 C3 6 6 12 9 18 C4.13712127 15.97812079 2.33532327 12.54819513 0 8 C-1.08453328 4.51400016 -1.16535524 3.49606571 0 0 Z " fill="#BBBBBB" transform="translate(198,200)"/>
<path d="M0 0 C0.33 0 0.66 0 1 0 C1 2.31 1 4.62 1 7 C0.34 7 -0.32 7 -1 7 C-1.33 12.94 -1.66 18.88 -2 25 C-2.33 25 -2.66 25 -3 25 C-3.55353075 6.95899772 -3.55353075 6.95899772 0 0 Z " fill="#BFBFBF" transform="translate(173,119)"/>
<path d="M0 0 C0.66 0.33 1.32 0.66 2 1 C-1.3 4.3 -4.6 7.6 -8 11 C-8.99 10.67 -9.98 10.34 -11 10 C-9.71034824 8.62437146 -8.37310707 7.29233607 -7 6 C-6.34 6 -5.68 6 -5 6 C-5 5.34 -5 4.68 -5 4 C-3.37373596 2.61767557 -1.7074998 1.28062485 0 0 Z " fill="#666666" transform="translate(147,113)"/>
<path d="M0 0 C0.33 1.32 0.66 2.64 1 4 C1.66 4 2.32 4 3 4 C2.67 6.97 2.34 9.94 2 13 C1.67 13 1.34 13 1 13 C0.67 11.02 0.34 9.04 0 7 C-0.99 7.99 -1.98 8.98 -3 10 C-2.01 6.7 -1.02 3.4 0 0 Z " fill="#8A8A8A" transform="translate(259,104)"/>
<path d="M0 0 C0.99 0 1.98 0 3 0 C2.67 5.94 2.34 11.88 2 18 C1.67 18 1.34 18 1 18 C0.67 12.06 0.34 6.12 0 0 Z " fill="#B1B1B1" transform="translate(279,152)"/>
<path d="M0 0 C0.33 0 0.66 0 1 0 C1.33 2.64 1.66 5.28 2 8 C4.31 8.33 6.62 8.66 9 9 C9 9.33 9 9.66 9 10 C2.9453125 10.9765625 2.9453125 10.9765625 1 11 C0.34 10.34 -0.32 9.68 -1 9 C-0.9765625 6.8359375 -0.9765625 6.8359375 -0.625 4.375 C-0.51414063 3.55773437 -0.40328125 2.74046875 -0.2890625 1.8984375 C-0.19367188 1.27195313 -0.09828125 0.64546875 0 0 Z " fill="#D6D6D6" transform="translate(235,194)"/>
<path d="M0 0 C2.09350689 3.4019487 2.17942163 6.05272412 2 10 C1.34 10 0.68 10 0 10 C-0.66 7.69 -1.32 5.38 -2 3 C-1.34 3 -0.68 3 0 3 C0 2.01 0 1.02 0 0 Z " fill="#7C7C7C" transform="translate(196,193)"/>
<path d="M0 0 C1.90318884 2.85478326 2.4619099 4.41941308 3.125 7.6875 C3.29257813 8.49574219 3.46015625 9.30398437 3.6328125 10.13671875 C3.75398437 10.75160156 3.87515625 11.36648437 4 12 C2 11 2 11 1.11328125 9.00390625 C0.84902344 8.19824219 0.58476562 7.39257812 0.3125 6.5625 C0.04050781 5.75941406 -0.23148438 4.95632812 -0.51171875 4.12890625 C-1 2 -1 2 0 0 Z " fill="#BDBDBD" transform="translate(210,190)"/>
<path d="M0 0 C0.33 0 0.66 0 1 0 C1.125 5.75 1.125 5.75 0 8 C-0.66 8 -1.32 8 -2 8 C-1.125 1.125 -1.125 1.125 0 0 Z " fill="#3C3C3C" transform="translate(285,134)"/>
<path d="M0 0 C-0.33 1.65 -0.66 3.3 -1 5 C-1.33 4.01 -1.66 3.02 -2 2 C-3.32 2.99 -4.64 3.98 -6 5 C-6.66 4.67 -7.32 4.34 -8 4 C-3.375 0 -3.375 0 0 0 Z " fill="#B1B1B1" transform="translate(329,124)"/>
<path d="M0 0 C0.33 0 0.66 0 1 0 C0.67 2.97 0.34 5.94 0 9 C-0.99 8.34 -1.98 7.68 -3 7 C-1.125 2.25 -1.125 2.25 0 0 Z " fill="#B6B6B6" transform="translate(264,95)"/>
<path d="M0 0 C0.66 0 1.32 0 2 0 C1.67 0.66 1.34 1.32 1 2 C0.67 1.34 0.34 0.68 0 0 Z " fill="#FFFFFF" transform="translate(255,198)"/>
<path d="M0 0 C2 1 2 1 2 1 Z " fill="#FFFFFF" transform="translate(245,203)"/>
<path d="" fill="#F7F7F7" transform="translate(0,0)"/>
<path d="" fill="#FFFFFF" transform="translate(0,0)"/>
<path d="" fill="#FFFFFF" transform="translate(0,0)"/>
<path d="" fill="#FFFFFF" transform="translate(0,0)"/>
<path d="" fill="#FFFFFF" transform="translate(0,0)"/>
<path d="" fill="#FFFFFF" transform="translate(0,0)"/>
<path d="" fill="#FFFFFF" transform="translate(0,0)"/>
<path d="" fill="#FFFFFF" transform="translate(0,0)"/>
<path d="" fill="#FFFFFF" transform="translate(0,0)"/>
<path d="" fill="#FFFFFF" transform="translate(0,0)"/>
<path d="" fill="#FFFFFF" transform="translate(0,0)"/>
<path d="" fill="#FFFFFF" transform="translate(0,0)"/>
<path d="" fill="#FFFFFF" transform="translate(0,0)"/>
<path d="" fill="#FFFFFF" transform="translate(0,0)"/>
<path d="" fill="#FFFFFF" transform="translate(0,0)"/>
<path d="" fill="#FFFFFF" transform="translate(0,0)"/>
<path d="" fill="#FFFFFF" transform="translate(0,0)"/>
<path d="" fill="#FFFFFF" transform="translate(0,0)"/>
<path d="" fill="#FFFFFF" transform="translate(0,0)"/>
<path d="" fill="#FFFFFF" transform="translate(0,0)"/>
<path d="" fill="#FFFFFF" transform="translate(0,0)"/>
<path d="" fill="#FFFFFF" transform="translate(0,0)"/>
<path d="" fill="#FFFFFF" transform="translate(0,0)"/>
<path d="" fill="#FFFFFF" transform="translate(0,0)"/>
<path d="" fill="#FFFFFF" transform="translate(0,0)"/>
<path d="" fill="#FFFFFF" transform="translate(0,0)"/>
<path d="" fill="#FFFFFF" transform="translate(0,0)"/>
<path d="" fill="#FFFFFF" transform="translate(0,0)"/>
<path d="" fill="#FFFFFF" transform="translate(0,0)"/>
<path d="" fill="#FFFFFF" transform="translate(0,0)"/>
<path d="" fill="#FFFFFF" transform="translate(0,0)"/>
<path d="" fill="#FFFFFF" transform="translate(0,0)"/>
<path d="" fill="#FFFFFF" transform="translate(0,0)"/>
<path d="" fill="#FFFFFF" transform="translate(0,0)"/>
<path d="" fill="#FFFFFF" transform="translate(0,0)"/>
<path d="" fill="#FFFFFF" transform="translate(0,0)"/>
<path d="" fill="#FFFFFF" transform="translate(0,0)"/>
<path d="" fill="#FFFFFF" transform="translate(0,0)"/>
<path d="" fill="#FFFFFF" transform="translate(0,0)"/>
<path d="" fill="#FFFFFF" transform="translate(0,0)"/>
<path d="" fill="#FFFFFF" transform="translate(0,0)"/>
<path d="" fill="#FFFFFF" transform="translate(0,0)"/>
<path d="" fill="#FFFFFF" transform="translate(0,0)"/>
<path d="" fill="#FFFFFF" transform="translate(0,0)"/>
<path d="" fill="#FFFFFF" transform="translate(0,0)"/>
<path d="" fill="#FFFFFF" transform="translate(0,0)"/>
<path d="" fill="#FFFFFF" transform="translate(0,0)"/>
<path d="" fill="#FFFFFF" transform="translate(0,0)"/>
<path d="" fill="#FFFFFF" transform="translate(0,0)"/>
<path d="" fill="#FFFFFF" transform="translate(0,0)"/>
</svg>
